<svg width="888" height="663" viewBox="0 0 888 663" fill="none" xmlns="http://www.w3.org/2000/svg">
<g id="activity">
<path id="Vector" d="M292.913 333.612C292.922 316.477 296.743 299.558 304.098 284.082C311.453 268.606 322.159 254.96 335.44 244.133C348.72 233.306 364.243 225.568 380.884 221.481C397.524 217.394 414.865 217.06 431.651 220.502C448.436 223.945 464.246 231.079 477.934 241.386C491.622 251.694 502.846 264.917 510.792 280.098C518.738 295.279 523.208 312.038 523.878 329.159C524.547 346.281 521.399 363.338 514.663 379.093C514.776 378.967 514.892 378.845 515.005 378.719C509.873 390.679 502.76 401.686 493.964 411.278C493.938 411.307 493.911 411.335 493.884 411.364C493.175 412.138 492.461 412.907 491.731 413.661C481.174 424.672 468.534 433.476 454.546 439.563C440.559 445.649 425.501 448.896 410.248 449.115L414.152 661.148H402.092L404.533 521.204L387.087 512.019L389.748 506.964L404.644 514.806L405.79 449.105C375.618 448.413 346.914 435.941 325.819 414.358C304.724 392.774 292.913 363.792 292.913 333.612Z" fill="#BDC8DD"/>
<path id="Vector_2" d="M624.741 288.418C624.751 268.919 629.099 249.666 637.469 232.055C645.84 214.444 658.023 198.915 673.136 186.593C688.249 174.272 705.914 165.467 724.85 160.816C743.787 156.165 763.52 155.784 782.622 159.702C801.724 163.62 819.715 171.738 835.291 183.467C850.868 195.197 863.641 210.245 872.683 227.521C881.726 244.796 886.813 263.867 887.574 283.352C888.336 302.836 884.754 322.246 877.088 340.175C877.217 340.032 877.349 339.893 877.477 339.749C871.638 353.359 863.543 365.886 853.533 376.801C853.503 376.834 853.473 376.866 853.443 376.899C852.635 377.779 851.823 378.655 850.992 379.513C838.978 392.043 824.595 402.062 808.677 408.988C792.759 415.914 775.624 419.61 758.267 419.859L762.709 661.148H748.984L751.762 501.895L731.909 491.442L734.938 485.69L751.889 494.614L753.193 419.847C718.858 419.06 686.193 404.867 662.188 380.306C638.182 355.744 624.742 322.763 624.741 288.418V288.418Z" fill="#BDC8DD"/>
<path id="Vector_3" d="M642.441 344.928C547.276 344.928 470.129 267.781 470.129 172.616C470.129 77.4512 547.276 0.304581 642.441 0.304581C737.606 0.304581 814.753 77.4512 814.753 172.616C814.753 267.781 737.606 344.928 642.441 344.928Z" fill="#98E6B9"/>
<path id="Vector_4" opacity="0.2" d="M769.671 57.5256C785.743 95.1228 787.924 137.21 775.822 176.267C763.72 215.324 738.125 248.805 703.61 270.728C669.095 292.65 627.91 301.586 587.413 295.938C546.916 290.289 509.747 270.425 482.548 239.895C492.367 262.866 507.062 283.427 525.616 300.154C544.169 316.881 566.138 329.374 589.999 336.769C613.861 344.163 639.044 346.28 663.805 342.975C688.566 339.67 712.313 331.022 733.4 317.628C754.487 304.235 772.409 286.417 785.926 265.409C799.443 244.401 808.231 220.705 811.681 195.964C815.131 171.223 813.161 146.027 805.907 122.123C798.653 98.2184 786.289 76.177 769.671 57.5256Z" fill="black"/>
<path id="Vector_5" d="M641.968 172.616H641.494L632.973 661.148H650.962L641.968 172.616Z" fill="#313042"/>
<path id="Vector_6" d="M610.593 438.717L614.562 431.177L643.046 446.173L639.077 453.713L610.593 438.717Z" fill="#3F3D56"/>
<path id="Vector_7" d="M378.885 656.578C378.885 656.578 378.263 643.552 365.518 645.066Z" fill="#313042"/>
<path id="Vector_8" d="M382.486 644.182C378.963 644.182 376.107 641.326 376.107 637.803C376.107 634.28 378.963 631.425 382.486 631.425C386.009 631.425 388.865 634.28 388.865 637.803C388.865 641.326 386.009 644.182 382.486 644.182Z" fill="#F2C384"/>
<path id="Vector_9" d="M381.723 648.545H383.524V661.148H381.723V648.545Z" fill="#313042"/>
<path id="Vector_10" d="M820.917 654.778C820.917 654.778 820.295 641.751 807.551 643.265Z" fill="#313042"/>
<path id="Vector_11" d="M824.518 642.381C820.995 642.381 818.14 639.526 818.14 636.003C818.14 632.48 820.995 629.624 824.518 629.624C828.041 629.624 830.897 632.48 830.897 636.003C830.897 639.526 828.041 642.381 824.518 642.381Z" fill="#F2C384"/>
<path id="Vector_12" d="M823.756 646.744H825.556V659.348H823.756V646.744Z" fill="#313042"/>
<path id="Vector_13" d="M716.486 655.678C716.486 655.678 715.864 642.651 703.119 644.166Z" fill="#313042"/>
<path id="Vector_14" d="M720.087 643.282C716.564 643.282 713.708 640.426 713.708 636.903C713.708 633.38 716.564 630.524 720.087 630.524C723.61 630.524 726.466 633.38 726.466 636.903C726.466 640.426 723.61 643.282 720.087 643.282Z" fill="#F2C384"/>
<path id="Vector_15" d="M719.324 647.644H721.125V660.248H719.324V647.644Z" fill="#313042"/>
<path id="Vector_16" d="M438.757 68.2985L425.962 58.0651C435.902 56.9685 439.986 62.3894 441.657 66.6801C449.422 63.4557 457.876 67.6815 457.876 67.6815L432.276 76.9752C433.567 73.5257 435.815 70.5158 438.757 68.2985Z" fill="#313042"/>
<path id="Vector_17" d="M244.173 172.54L231.378 162.306C241.318 161.21 245.402 166.631 247.073 170.921C254.839 167.697 263.292 171.923 263.292 171.923L237.692 181.216C238.984 177.767 241.232 174.757 244.173 172.54V172.54Z" fill="#313042"/>
<path id="Vector_18" d="M454.045 261.492L441.251 251.259C451.19 250.162 455.274 255.583 456.946 259.874C464.711 256.649 473.165 260.875 473.165 260.875L447.565 270.169C448.856 266.719 451.104 263.71 454.045 261.492V261.492Z" fill="#313042"/>
<path id="Vector_19" d="M528.745 602.879C528.745 602.879 518.723 632.227 523.018 642.964L510.134 654.417L502.26 644.395C502.26 644.395 510.85 635.806 510.134 629.364C509.418 622.922 508.702 600.016 508.702 600.016L528.745 602.879Z" fill="#FFD2C3"/>
<path id="Vector_20" d="M480.79 660.139C481.375 660.481 481.934 660.805 482.447 661.102H526.875C527.287 660.867 527.617 660.512 527.823 660.084C528.029 659.656 528.1 659.177 528.027 658.708C527.82 657.645 527.289 655.485 526.632 653C525.074 647.121 522.788 639.424 522.293 640.243C522.291 640.243 522.29 640.243 522.289 640.244C522.288 640.244 522.287 640.245 522.286 640.246C522.285 640.247 522.285 640.247 522.284 640.249C522.284 640.25 522.284 640.251 522.284 640.252C521.59 641.531 520.159 647.256 516.576 646.545C512.993 645.825 507.267 644.393 507.267 644.393C507.267 644.393 509.311 639.802 507.357 637.947C506.937 637.557 506.405 637.308 505.836 637.236C501.541 636.525 501.541 642.962 501.541 642.962L485.796 651.55C484.438 651.926 483.114 652.411 481.834 653C478.639 654.494 475.479 657.051 480.79 660.139Z" fill="#313042"/>
<path id="Vector_21" d="M557.377 592.142L575.987 614.332L580.998 625.785L574.556 630.795L568.829 628.648C568.829 628.648 563.819 615.764 558.808 613.616C553.798 611.469 541.629 597.153 541.629 597.153L557.377 592.142Z" fill="#FFD2C3"/>
<path id="Vector_22" d="M518.366 575.113L527.857 592.708L534.657 605.306C536.833 606.601 539.732 606.58 542.853 605.814C544.307 605.442 545.733 604.966 547.119 604.389C555.637 600.904 564.277 593.982 564.277 593.982L547.928 573.553L542.588 566.889L541.321 565.3L535.215 567.912L524.443 572.515L518.366 575.113Z" fill="#313042"/>
<path id="Vector_23" d="M560.726 423.185L568.308 454.285L560.503 494.185C560.503 494.185 560.311 510.495 553.16 509.257C546.008 508.02 553.503 491.57 553.503 491.57L557.001 458.854L545.816 426.533C545.398 425.211 545.455 423.784 545.977 422.5C546.5 421.215 547.456 420.155 548.679 419.501V419.501C553.107 416.796 559.4 418.721 560.726 423.185Z" fill="#FFD2C3"/>
<path id="Vector_24" d="M534.113 396.371L540.555 416.414L552.724 409.972C552.724 409.972 547.713 395.656 547.713 393.508C547.713 391.361 534.113 396.371 534.113 396.371Z" fill="#FFD2C3"/>
<path id="Vector_25" d="M539.124 404.245C530.822 404.245 524.092 397.515 524.092 389.213C524.092 380.912 530.822 374.182 539.124 374.182C547.426 374.182 554.155 380.912 554.155 389.213C554.155 397.515 547.426 404.245 539.124 404.245Z" fill="#FFD2C3"/>
<path id="Vector_26" d="M535.187 421.066L538.05 418.203L538.766 414.624C538.766 414.624 548.071 402.456 555.945 406.75C558.405 408.093 560.237 411.182 561.592 414.796C565.044 424.242 564.722 434.654 560.693 443.868L548.071 473.32L519.439 470.456L524.45 451.846C524.45 451.846 519.439 440.393 528.745 432.519L535.187 421.066Z" fill="#E7B0ED"/>
<path id="Vector_27" opacity="0.3" d="M518.366 575.113L527.857 592.708L534.657 605.306C536.833 606.601 539.732 606.58 542.853 605.814C543.397 602.192 540.147 583.052 542.703 567.447L542.588 566.889L541.321 565.3L535.215 567.912L524.443 572.515L518.366 575.113Z" fill="black"/>
<path id="Vector_28" d="M518.366 468.667C518.366 468.667 536.976 457.214 549.861 471.53L549.145 475.825C549.145 475.825 559.882 487.994 553.44 513.762C546.998 539.531 536.976 606.816 536.976 606.816C536.976 606.816 513.355 608.248 502.618 600.374C502.618 600.374 506.197 511.615 518.366 503.025V468.667Z" fill="#313042"/>
<path id="Vector_29" d="M557.173 428.8L536.976 453.635L500.471 471.53C500.471 471.53 487.359 481.234 484.023 474.788C480.688 468.342 498.323 464.372 498.323 464.372L526.503 447.388L545.495 418.944C546.295 417.812 547.466 416.995 548.806 416.635C550.145 416.276 551.568 416.396 552.827 416.975C557.658 418.869 559.929 425.046 557.173 428.8Z" fill="#FFD2C3"/>
<path id="Vector_30" d="M570.554 627.075C570.554 627.075 566.166 621.557 563.545 625.034C560.924 628.511 566.636 631.49 566.636 631.49L566.969 649.425C566.969 649.425 563.852 663.139 572.267 657.84C580.682 652.542 581.013 651.907 582.668 648.734C584.324 645.561 587.744 632.813 590.696 628.702C593.648 624.59 596.352 616.313 592.847 615.292C589.343 614.271 573.009 610.637 573.823 611.848C574.636 613.058 579.051 616.976 576.762 619.818C574.472 622.66 570.554 627.075 570.554 627.075Z" fill="#313042"/>
<path id="Vector_31" d="M531.251 376.384C531.251 376.365 531.25 376.347 531.25 376.329C531.25 372.223 532.467 368.21 534.748 364.796C537.029 361.383 540.271 358.722 544.064 357.151C547.857 355.58 552.031 355.169 556.058 355.97C560.085 356.771 563.783 358.748 566.686 361.651C569.589 364.554 571.566 368.253 572.367 372.279C573.168 376.306 572.757 380.48 571.186 384.273C569.615 388.066 566.954 391.308 563.541 393.589C560.127 395.87 556.114 397.087 552.008 397.087C551.526 397.087 549.619 400.699 549.145 400.666C549.116 389.709 542.028 377.12 531.251 376.384Z" fill="#2F2E41"/>
<path id="Vector_32" d="M574.198 374.182C566.687 374.182 560.598 368.093 560.598 360.582C560.598 353.07 566.687 346.981 574.198 346.981C581.709 346.981 587.798 353.07 587.798 360.582C587.798 368.093 581.709 374.182 574.198 374.182Z" fill="#2F2E41"/>
<path id="Vector_33" d="M574.822 339.98C571.544 339.959 568.37 341.124 565.885 343.26C563.399 345.396 561.77 348.359 561.297 351.602C560.824 354.845 561.54 358.15 563.313 360.906C565.085 363.663 567.795 365.685 570.942 366.601C568.993 366.598 567.068 366.176 565.297 365.363C563.526 364.551 561.95 363.367 560.677 361.892C559.404 360.418 558.462 358.686 557.917 356.815C557.371 354.945 557.234 352.979 557.515 351.051C557.796 349.123 558.489 347.277 559.546 345.64C560.602 344.003 561.999 342.613 563.64 341.563C565.281 340.513 567.129 339.828 569.059 339.555C570.988 339.281 572.953 339.426 574.822 339.98V339.98Z" fill="#2F2E41"/>
<path id="Vector_34" d="M542.703 372.034H535.545C532.128 372.034 528.85 373.392 526.434 375.808C524.018 378.224 522.66 381.501 522.66 384.919V384.919H542.703V372.034Z" fill="#2F2E41"/>
<path id="Vector_35" d="M324.081 661.307C324.081 661.307 323.459 648.28 310.714 649.794Z" fill="#313042"/>
<path id="Vector_36" d="M760.711 661.307C760.711 661.307 760.09 648.28 747.345 649.794Z" fill="#313042"/>
<path id="Vector_37" d="M434.597 661.307C434.597 661.307 435.219 648.28 447.963 649.794Z" fill="#313042"/>
<path id="Vector_38" d="M606.548 661.307C606.548 661.307 607.17 648.28 619.915 649.794Z" fill="#313042"/>
<path id="Vector_39" d="M789.303 661.307C789.303 661.307 789.925 648.28 802.67 649.794Z" fill="#313042"/>
<path id="Vector_40" d="M293 660H888V662H293V660Z" fill="#313042"/>
</g>
</svg>
