<?xml version="1.0" encoding="UTF-8"?>
<svg xmlns="http://www.w3.org/2000/svg" xmlns:xlink="http://www.w3.org/1999/xlink" width="64pt" height="64pt" viewBox="0 0 64 64" version="1.1">
<g id="surface21389014">
<path style=" stroke:none;fill-rule:nonzero;fill:#808080;fill-opacity:1;" d="M 10 8 C 6.703125 8 4 10.703125 4 14 L 4 46 C 4 49.296875 6.703125 52 10 52 L 16 52 L 16 61.734375 L 30.609375 52 L 50 52 C 53.296875 52 56 49.296875 56 46 L 56 14 C 56 10.703125 53.296875 8 50 8 Z M 10 12 L 50 12 C 51.125 12 52 12.875 52 14 L 52 46 C 52 47.125 51.125 48 50 48 L 29.390625 48 L 20 54.265625 L 20 48 L 10 48 C 8.875 48 8 47.125 8 46 L 8 14 C 8 12.875 8.875 12 10 12 Z M 10 12 "/>
<path style=" stroke:none;fill-rule:nonzero;fill:#808080;fill-opacity:1;" d="M 24.808594 30.53125 C 24.808594 30.25 24.890625 30.015625 25.054688 29.832031 C 25.222656 29.644531 25.46875 29.550781 25.804688 29.550781 C 26.132812 29.550781 26.382812 29.644531 26.554688 29.832031 C 26.726562 30.015625 26.816406 30.25 26.816406 30.53125 C 26.816406 30.796875 26.726562 31.019531 26.554688 31.199219 C 26.382812 31.382812 26.132812 31.472656 25.804688 31.472656 C 25.46875 31.472656 25.222656 31.382812 25.054688 31.199219 C 24.890625 31.019531 24.808594 30.796875 24.808594 30.53125 Z M 29.507812 30.53125 C 29.507812 30.25 29.59375 30.015625 29.757812 29.832031 C 29.921875 29.644531 30.171875 29.550781 30.503906 29.550781 C 30.835938 29.550781 31.085938 29.644531 31.257812 29.832031 C 31.429688 30.015625 31.515625 30.25 31.515625 30.53125 C 31.515625 30.796875 31.429688 31.019531 31.257812 31.199219 C 31.085938 31.382812 30.835938 31.472656 30.503906 31.472656 C 30.171875 31.472656 29.921875 31.382812 29.757812 31.199219 C 29.59375 31.019531 29.507812 30.796875 29.507812 30.53125 Z M 34.207031 30.53125 C 34.207031 30.25 34.292969 30.015625 34.457031 29.832031 C 34.625 29.644531 34.871094 29.550781 35.203125 29.550781 C 35.535156 29.550781 35.785156 29.644531 35.957031 29.832031 C 36.128906 30.015625 36.214844 30.25 36.214844 30.53125 C 36.214844 30.796875 36.128906 31.019531 35.957031 31.199219 C 35.785156 31.382812 35.535156 31.472656 35.203125 31.472656 C 34.871094 31.472656 34.625 31.382812 34.457031 31.199219 C 34.292969 31.019531 34.207031 30.796875 34.207031 30.53125 Z M 34.207031 30.53125 "/>
</g>
</svg>
