<svg width="34" height="34" viewBox="0 0 34 34" fill="none" xmlns="http://www.w3.org/2000/svg">
<g id="checkboxPink" clip-path="url(#clip0)">
<g id="Gruppe 33">
<path id="Pfad 59" d="M17 0C20.3623 0 23.6491 0.997033 26.4447 2.86502C29.2403 4.733 31.4193 7.38804 32.706 10.4944C33.9926 13.6007 34.3293 17.0189 33.6734 20.3165C33.0174 23.6142 31.3983 26.6433 29.0208 29.0208C26.6433 31.3983 23.6142 33.0174 20.3165 33.6734C17.0189 34.3293 13.6007 33.9926 10.4944 32.706C7.38804 31.4193 4.733 29.2403 2.86502 26.4447C0.997033 23.6491 0 20.3623 0 17C0 12.4913 1.79107 8.1673 4.97918 4.97918C8.1673 1.79107 12.4913 0 17 0V0Z" fill="#E7B0ED"/>
<g id="Gruppe 31">
<path id="Pfad 38" d="M9.32397 17.461H24.25" stroke="#EFF2F8" stroke-width="3" stroke-linecap="round"/>
</g>
</g>
</g>
<defs>
<clipPath id="clip0">
<rect width="34" height="34" fill="white"/>
</clipPath>
</defs>
</svg>
