<svg fill="#000000" xmlns="http://www.w3.org/2000/svg"  viewBox="0 0 50 50" width="50px" height="50px"><path d="M 28.5 11 C 24.208865 11 20.47903 13.219779 18.230469 16.521484 C 17.514927 16.271851 16.802 16 16 16 C 12.663611 16 9.9441495 18.386477 9.2519531 21.523438 C 5.6452019 22.697624 3 26.012016 3 30 C 3 34.958516 7.0414839 39 12 39 L 39 39 C 43.406438 39 47 35.406438 47 31 C 47 27.295312 44.418791 24.276585 40.988281 23.375 C 40.919258 16.542274 35.348719 11 28.5 11 z M 28.5 13 C 34.310508 13 39 17.689492 39 23.5 C 39 23.625271 38.983456 23.796788 38.972656 24.027344 A 1.0001 1.0001 0 0 0 39.833984 25.066406 C 42.753937 25.472885 45 27.958721 45 31 C 45 34.325562 42.325562 37 39 37 L 12 37 C 8.1225161 37 5 33.877484 5 30 C 5 26.713745 7.2557355 23.980514 10.294922 23.21875 A 1.0001 1.0001 0 0 0 11.044922 22.373047 C 11.353436 19.906605 13.440292 18 16 18 C 16.787438 18 17.525663 18.186534 18.193359 18.513672 A 1.0001 1.0001 0 0 0 19.492188 18.128906 C 21.3267 15.060117 24.660266 13 28.5 13 z"/></svg>