<svg width="923" height="748" viewBox="0 0 923 748" fill="none" xmlns="http://www.w3.org/2000/svg">
<g clip-path="url(#clip0)">
<path d="M282.004 237.246C279.324 338.002 413.633 440.856 581.281 440.856C748.929 440.856 1015.91 242.219 889.111 237.246C644.786 227.662 561.059 126.475 585.557 54.7457C629.432 -73.716 287.281 38.8562 282.004 237.246Z" fill="#F2C384"/>
<path d="M505 162.138L500.503 159.276L503.365 154.779L502.138 154L499.278 158.497L494.781 155.635L494 156.86L498.497 159.722L495.635 164.219L496.862 165L499.722 160.503L504.219 163.363L505 162.138Z" fill="#E7B0ED"/>
<path d="M657.004 305.445L654.96 304.144L656.261 302.1L655.703 301.746L654.403 303.79L652.359 302.489L652.004 303.046L654.048 304.347L652.747 306.391L653.305 306.746L654.605 304.702L656.649 306.002L657.004 305.445Z" fill="#98E6B9"/>
<path d="M416 291.398L411.912 288.796L414.514 284.708L413.398 284L410.798 288.088L406.71 285.486L406 286.6L410.088 289.202L407.486 293.29L408.602 294L411.202 289.912L415.29 292.512L416 291.398Z" fill="#313042"/>
<path d="M619 380.454L607.145 372.908L614.69 361.053L611.454 359L603.914 370.855L592.059 363.309L590 366.54L601.855 374.086L594.309 385.941L597.546 388L605.086 376.145L616.941 383.685L619 380.454Z" fill="#98E6B9"/>
<path d="M424 346.699L421.956 345.398L423.257 343.354L422.699 343L421.399 345.044L419.355 343.743L419 344.3L421.044 345.601L419.743 347.645L420.301 348L421.601 345.956L423.645 347.256L424 346.699Z" fill="#313042"/>
<path d="M836 296.138L831.503 293.276L834.365 288.779L833.138 288L830.278 292.497L825.781 289.635L825 290.86L829.497 293.722L826.635 298.219L827.862 299L830.722 294.503L835.219 297.363L836 296.138Z" fill="#98E6B9"/>
<path d="M384 178.179L381.138 176.357L382.96 173.496L382.179 173L380.359 175.862L377.497 174.04L377 174.82L379.862 176.641L378.04 179.503L378.821 180L380.641 177.138L383.503 178.958L384 178.179Z" fill="#98E6B9"/>
<path d="M553 204.356L547.276 200.716L550.918 194.992L549.358 194L545.716 199.722L539.994 196.08L539 197.642L544.724 201.282L541.082 207.006L542.642 208L546.284 202.276L552.006 205.918L553 204.356Z" fill="white"/>
<path d="M452.5 242C455.538 242 458 239.538 458 236.5C458 233.462 455.538 231 452.5 231C449.462 231 447 233.462 447 236.5C447 239.538 449.462 242 452.5 242Z" fill="#98E6B9"/>
<path d="M333.004 236.746C334.661 236.746 336.004 235.402 336.004 233.746C336.004 232.089 334.661 230.746 333.004 230.746C331.347 230.746 330.004 232.089 330.004 233.746C330.004 235.402 331.347 236.746 333.004 236.746Z" fill="#98E6B9"/>
<path d="M537.004 126.746C538.661 126.746 540.004 125.402 540.004 123.746C540.004 122.089 538.661 120.746 537.004 120.746C535.347 120.746 534.004 122.089 534.004 123.746C534.004 125.402 535.347 126.746 537.004 126.746Z" fill="#313042"/>
<path d="M512 310C515.314 310 518 307.314 518 304C518 300.686 515.314 298 512 298C508.686 298 506 300.686 506 304C506 307.314 508.686 310 512 310Z" fill="white"/>
<path d="M505 246C506.657 246 508 244.657 508 243C508 241.343 506.657 240 505 240C503.343 240 502 241.343 502 243C502 244.657 503.343 246 505 246Z" fill="#313042"/>
<path d="M715 340C717.761 340 720 337.761 720 335C720 332.239 717.761 330 715 330C712.239 330 710 332.239 710 335C710 337.761 712.239 340 715 340Z" fill="#313042"/>
<path d="M406.004 224.746C407.109 224.746 408.004 223.85 408.004 222.746C408.004 221.641 407.109 220.746 406.004 220.746C404.899 220.746 404.004 221.641 404.004 222.746C404.004 223.85 404.899 224.746 406.004 224.746Z" fill="#E7B0ED"/>
<path d="M533.5 68C535.985 68 538 65.9853 538 63.5C538 61.0147 535.985 59 533.5 59C531.015 59 529 61.0147 529 63.5C529 65.9853 531.015 68 533.5 68Z" fill="#E7B0ED"/>
<path d="M444 156C447.866 156 451 152.866 451 149C451 145.134 447.866 142 444 142C440.134 142 437 145.134 437 149C437 152.866 440.134 156 444 156Z" fill="#98E6B9"/>
<path d="M474.004 88.7456C475.109 88.7456 476.004 87.8501 476.004 86.7456C476.004 85.641 475.109 84.7456 474.004 84.7456C472.899 84.7456 472.004 85.641 472.004 86.7456C472.004 87.8501 472.899 88.7456 474.004 88.7456Z" fill="white"/>
<path d="M777 278C780.866 278 784 274.866 784 271C784 267.134 780.866 264 777 264C773.134 264 770 267.134 770 271C770 274.866 773.134 278 777 278Z" fill="#E7B0ED"/>
<path d="M573 284C574.105 284 575 283.105 575 282C575 280.895 574.105 280 573 280C571.895 280 571 280.895 571 282C571 283.105 571.895 284 573 284Z" fill="#313042"/>
<path d="M528.5 359C537.06 359 544 352.06 544 343.5C544 334.94 537.06 328 528.5 328C519.94 328 513 334.94 513 343.5C513 352.06 519.94 359 528.5 359Z" fill="#E7B0ED"/>
<path d="M645.5 249C649.642 249 653 245.642 653 241.5C653 237.358 649.642 234 645.5 234C641.358 234 638 237.358 638 241.5C638 245.642 641.358 249 645.5 249Z" fill="white"/>
<path d="M91.9285 720.614C91.9285 720.614 86.3315 744.02 91.4197 745.037C96.5079 746.055 121.44 745.727 127.546 746.744C133.651 747.762 146.372 746.055 146.372 741.476C146.372 736.897 133.143 733.844 133.143 733.844C133.143 733.844 114.316 723.667 113.808 723.158C113.299 722.65 91.9285 720.614 91.9285 720.614Z" fill="#2F2E41"/>
<path d="M97.9211 553.492C97.9211 553.492 99.7461 574.175 99.7461 576C99.7461 577.825 88.7959 673.944 91.2292 693.411C93.6626 712.878 91.004 719.095 91.004 722.746C91.004 726.396 110.696 725.045 110.696 725.045L131.988 590.601L121.038 550.45L97.9211 553.492Z" fill="#2F2E41"/>
<path d="M99.0519 725.738C99.0519 725.738 93.9638 744.055 99.0519 745.073C104.14 746.09 129.072 743.907 135.178 744.925C141.284 745.942 154.004 746.09 154.004 741.511C154.004 736.932 140.775 733.879 140.775 733.879C140.775 733.879 121.949 723.703 121.44 723.194C120.931 722.685 99.0519 725.738 99.0519 725.738Z" fill="#2F2E41"/>
<path d="M92.446 529.158C92.446 529.158 85.1458 546.8 93.6627 555.925C102.179 565.05 111.913 583.301 111.913 584.517C111.913 585.734 94.8794 706.795 97.3128 714.703C99.7461 722.612 99.1377 727.478 98.5294 728.695C97.9211 729.912 104.613 736.604 111.913 736.604C119.213 736.604 130.163 731.129 131.38 726.262C132.597 721.395 129.555 679.419 130.163 671.511C130.772 663.602 155.106 537.066 152.064 534.025C149.022 530.983 92.446 529.158 92.446 529.158Z" fill="#2F2E41"/>
<path d="M138.68 389.238C150.104 389.238 159.364 379.978 159.364 368.554C159.364 357.131 150.104 347.871 138.68 347.871C127.257 347.871 117.996 357.131 117.996 368.554C117.996 379.978 127.257 389.238 138.68 389.238Z" fill="#F2C5B6"/>
<path d="M125.905 378.896C125.905 378.896 130.163 401.405 127.122 403.839C124.08 406.272 150.239 409.922 150.239 409.922C150.239 409.922 153.281 380.113 153.889 377.071C154.497 374.03 125.905 378.896 125.905 378.896Z" fill="#F2C5B6"/>
<path d="M153.889 408.097C153.889 408.097 157.813 386.662 128.004 392.746C128.004 392.746 100.787 415.062 102.004 435.746C103.221 456.429 92.446 516.382 93.6627 520.641C94.8794 524.899 86.3626 530.374 90.0126 532.199C93.6627 534.025 159.364 544.975 161.189 532.199C163.014 519.424 160.581 487.182 161.797 481.098C163.014 475.015 161.797 423.914 158.147 417.831C154.497 411.747 153.889 408.097 153.889 408.097Z" fill="#CFD5E1"/>
<path d="M141.114 556.533C141.114 556.533 131.988 591.209 143.547 591.209C155.106 591.209 154.497 555.317 154.497 555.317L141.114 556.533Z" fill="#F2C5B6"/>
<path d="M147.107 372.006C146.843 373.751 144.15 374.475 140.196 374.136L140.19 374.135C138.515 373.978 136.855 373.694 135.224 373.285C132.756 372.678 131.366 374.873 130.469 377.912C128.997 382.926 128.886 390.249 127.591 391.204C118.551 396.2 91.8406 362.7 105.528 354.027C110.403 350.937 126.813 339.404 138.151 341.734C149.488 344.064 144.899 358.136 144.899 358.136C144.899 358.136 145.314 359.983 145.786 362.356C146.458 365.345 146.912 368.379 147.145 371.434C147.145 371.625 147.132 371.816 147.107 372.006V372.006Z" fill="#2F2E41"/>
<path d="M148.414 414.18C148.414 414.18 127.73 412.964 125.905 443.381C124.08 473.798 124.688 502.391 124.688 502.999C124.688 503.607 133.205 561.4 141.114 561.4C149.022 561.4 155.106 560.183 156.931 557.142C158.756 554.1 152.064 510.299 152.064 510.299C152.064 510.299 149.022 464.065 153.889 449.464C158.756 434.864 159.364 416.005 148.414 414.18Z" fill="#CFD5E1"/>
<path opacity="0.1" d="M125.004 451.746L119.004 516.746L139.004 561.746L126.004 515.746L125.004 450.746" fill="black"/>
<path opacity="0.1" d="M154.004 458.746L155.532 535.375L150.004 493.746L154.004 458.746Z" fill="black"/>
<path d="M257.738 747.357H0V745.251H258.12L257.738 747.357Z" fill="#A9B0BD"/>
</g>
<defs>
<clipPath id="clip0">
<rect width="922.185" height="747.357" fill="white"/>
</clipPath>
</defs>
</svg>
