<svg xmlns="http://www.w3.org/2000/svg" xmlns:xlink="http://www.w3.org/1999/xlink" width="87" height="87" viewBox="0 0 87 87">
  <defs>
    <radialGradient id="radial-gradient" cx="0.579" cy="0.303" r="0.581" gradientTransform="translate(0 -0.02) scale(1 1.067)" gradientUnits="objectBoundingBox">
      <stop offset="0" stop-color="#faf8f8"/>
      <stop offset="1" stop-color="#eff2f8"/>
    </radialGradient>
    <filter id="Ellipse_32" x="0" y="0" width="87" height="87" filterUnits="userSpaceOnUse">
      <feOffset dy="3" input="SourceAlpha"/>
      <feGaussianBlur stdDeviation="3" result="blur"/>
      <feFlood flood-opacity="0.169"/>
      <feComposite operator="in" in2="blur"/>
      <feComposite in="SourceGraphic"/>
    </filter>
  </defs>
  <g id="Gruppe_35" data-name="Gruppe 35" transform="translate(-1935 243)">
    <g transform="matrix(1, 0, 0, 1, 1935, -243)" filter="url(#Ellipse_32)">
      <circle id="Ellipse_32-2" data-name="Ellipse 32" cx="34.5" cy="34.5" r="34.5" transform="translate(9 6)" fill="url(#radial-gradient)"/>
    </g>
    <path id="Icon_awesome-pencil-alt" data-name="Icon awesome-pencil-alt" d="M35.009,9.991l-3.241,3.241a.845.845,0,0,1-1.2,0l-7.8-7.8a.845.845,0,0,1,0-1.2L26.009.991a3.382,3.382,0,0,1,4.774,0l4.226,4.226A3.37,3.37,0,0,1,35.009,9.991ZM19.983,7.017,1.519,25.481.028,34.024a1.69,1.69,0,0,0,1.955,1.955l8.543-1.5L28.99,16.017a.845.845,0,0,0,0-1.2l-7.8-7.8a.853.853,0,0,0-1.2,0ZM8.726,23.9a.98.98,0,0,1,0-1.392L19.554,11.679a.984.984,0,0,1,1.392,1.392L10.118,23.9a.98.98,0,0,1-1.392,0ZM6.188,29.813H9.563v2.552l-4.535.795L2.841,30.973l.795-4.535H6.188Z" transform="translate(1962.898 -220.505)" fill="#b7b9bc"/>
  </g>
</svg>
