<svg fill="#808080" xmlns="http://www.w3.org/2000/svg"  viewBox="0 0 24 24" width="48px" height="48px"><path d="M 12 2 C 7.593562 2 4 5.593562 4 10 L 4 11 L 4 11.902344 C 3.426291 12.449411 3 13.153146 3 14 C 3 15.241968 3.8575508 16.162904 4.9433594 16.613281 C 6.2443933 19.723094 8.8502365 22 12 22 C 15.149764 22 17.755607 19.723094 19.056641 16.613281 C 20.142449 16.162904 21 15.241968 21 14 C 21 13.153146 20.573709 12.449411 20 11.902344 L 20 11 L 20 10 C 20 5.593562 16.406438 2 12 2 z M 12 4 C 14.655588 4 16.890622 5.7073783 17.685547 8.0878906 C 17.464195 8.0350364 17.236504 8 17 8 L 7 8 C 6.7634959 8 6.5358051 8.0350364 6.3144531 8.0878906 C 7.1093779 5.7073783 9.3444124 4 12 4 z M 7 10 L 17 10 C 17.56503 10 18 10.43497 18 11 L 18 12 L 18 12.851562 L 18.501953 13.138672 C 18.805591 13.312973 19 13.615008 19 14 C 19 14.515121 18.631169 14.912712 18.138672 14.980469 L 17.552734 15.0625 L 17.339844 15.613281 C 16.309043 18.299503 14.258448 20 12 20 C 9.7415517 20 7.6909574 18.299502 6.6601562 15.613281 L 6.4472656 15.0625 L 5.8613281 14.980469 C 5.3688308 14.912712 5 14.515121 5 14 C 5 13.615008 5.1944088 13.312973 5.4980469 13.138672 L 6 12.851562 L 6 12 L 6 11 C 6 10.43497 6.4349698 10 7 10 z"/></svg>