<svg width="258" height="486" viewBox="0 0 258 486" fill="none" xmlns="http://www.w3.org/2000/svg">
<g id="jump">
<path id="Vector" d="M134.64 214.65C134.759 214.765 134.911 214.839 135.075 214.86C135.239 214.882 135.406 214.85 135.55 214.77C135.242 214.775 134.936 214.735 134.64 214.65V214.65Z" fill="url(#paint0_linear)"/>
<path id="Vector_2" d="M169.03 228.08L168.13 232.97L167.44 236.71L166.18 243.55L153.96 252.1C153.96 252.1 152.86 251.16 151.04 249.67C146.04 245.55 135.51 237.19 127.78 232.67C125.794 231.402 123.644 230.409 121.39 229.72L169.03 228.08Z" fill="#FFD2C3"/>
<path id="Vector_3" opacity="0.1" d="M169.03 228.08L168.13 232.97C165.436 233.12 162.735 232.982 160.07 232.56L131.56 232.97C130.21 232.89 128.95 232.78 127.77 232.66C125.784 231.392 123.634 230.399 121.38 229.71L169.03 228.08Z" fill="black"/>
<path id="Vector_4" d="M160.07 231.76C160.07 231.76 174.33 234.2 175.14 228.09C175.95 221.98 167.81 218.76 160.9 218.3C153.99 217.84 112.42 220.76 112.42 220.76C112.42 220.76 105.09 230.53 131.56 232.16L160.07 231.76Z" fill="#313042"/>
<path id="Vector_5" opacity="0.1" d="M169.03 228.08L168.13 232.97L167.44 236.71L166.18 243.55L153.96 252.1C153.96 252.1 152.86 251.16 151.04 249.67C146.04 245.55 135.51 237.19 127.78 232.67C125.794 231.402 123.644 230.409 121.39 229.72L169.03 228.08Z" fill="black"/>
<path id="Vector_6" opacity="0.1" d="M169.03 228.08L168.13 232.97C165.436 233.12 162.735 232.982 160.07 232.56L131.56 232.97C130.21 232.89 128.95 232.78 127.77 232.66C125.784 231.392 123.634 230.399 121.38 229.71L169.03 228.08Z" fill="black"/>
<path id="Vector_7" opacity="0.1" d="M160.07 231.76C160.07 231.76 174.33 234.2 175.14 228.09C175.95 221.98 167.81 218.76 160.9 218.3C153.99 217.84 112.42 220.76 112.42 220.76C112.42 220.76 105.09 230.53 131.56 232.16L160.07 231.76Z" fill="black"/>
<path id="Vector_8" d="M191.22 30.95H116.69V119.33H191.22V30.95Z" fill="#313042"/>
<path id="Vector_9" opacity="0.1" d="M191.22 30.95H116.69V119.33H191.22V30.95Z" fill="black"/>
<path id="Vector_10" d="M29.33 182.26C28.1 182.57 26.54 183.75 24.79 185.47C17.26 192.91 6.52001 210.36 6.52001 210.36C-7.23999 193.98 7.99001 181.03 14.52 176.58C16.1 175.5 17.16 174.92 17.16 174.92L29.33 182.26Z" fill="#FFD2C3"/>
<path id="Vector_11" d="M168.22 58.85C168.22 58.85 171.89 84.51 184.51 90.62C197.13 96.73 168.22 108.13 168.22 108.13L128.71 93.47C128.71 93.47 151.11 86.14 146.63 64.55L168.22 58.85Z" fill="#FFD2C3"/>
<path id="Vector_12" d="M125.9 213.21L125 218.1L124.31 221.84L123.05 228.68L110.83 237.23C110.83 237.23 109.73 236.29 107.91 234.8C102.91 230.68 92.38 222.32 84.65 217.8C82.6636 216.532 80.5139 215.539 78.26 214.85L125.9 213.21Z" fill="#FFD2C3"/>
<path id="Vector_13" opacity="0.1" d="M125.9 213.21L125 218.1C122.306 218.25 119.604 218.112 116.94 217.69L88.43 218.1C87.08 218.02 85.82 217.91 84.64 217.79C82.6536 216.522 80.5039 215.529 78.25 214.84L125.9 213.21Z" fill="black"/>
<path id="Vector_14" d="M116.9 216.88C116.9 216.88 131.16 219.32 131.97 213.21C132.78 207.1 124.64 203.84 117.71 203.44C110.78 203.04 69.24 205.88 69.24 205.88C69.24 205.88 61.91 215.65 88.38 217.28L116.9 216.88Z" fill="#313042"/>
<path id="Vector_15" opacity="0.1" d="M124.27 221.85L123.01 228.69L110.79 237.24C110.79 237.24 109.69 236.3 107.87 234.81L124.03 221.56L124.27 221.85Z" fill="black"/>
<path id="Vector_16" d="M204.9 315.09C204.34 314.817 203.773 314.527 203.2 314.22L201.71 312.32L182.03 287.32V287.76C181.9 291.91 180.48 325.01 169.42 328.06C157.61 331.32 143.35 332.13 136.84 310.14C130.33 288.15 118.51 240.09 106.29 237.24L124.41 222.37C124.41 222.37 136.41 236.37 141.31 249.85C141.13 248.99 132.84 210.28 139.68 203.44H199.14C199.14 203.44 208.3 229.58 214.62 242.54C219.52 252.6 226.87 276.38 231.62 292.47C236.32 308.39 219.9 322.39 204.9 315.09Z" fill="#BDC8DD"/>
<path id="Vector_17" opacity="0.1" d="M203.24 210.76C194.07 216.19 153.75 213.98 140.61 213.1L137.04 212.84C136.65 212.84 137.1 212.62 137.1 212.62L137.47 208.92L147.24 184.08L199.58 153.76C198.52 156.95 198.16 161.84 198.25 167.45C198.51 185.43 203.24 210.76 203.24 210.76Z" fill="black"/>
<path id="Vector_18" d="M203.24 209.55C194.07 214.98 153.75 212.77 140.61 211.89L137.04 211.63H136.45L137.1 211.46L140.32 210.61L147.24 182.91L199.58 152.57C198.52 155.76 198.16 160.65 198.25 166.26C198.51 184.21 203.24 209.55 203.24 209.55Z" fill="#F2F1F2"/>
<path id="Vector_19" opacity="0.1" d="M198.25 166.22C187.61 168.67 164.19 175.88 155.19 193.22C149.19 204.8 144.19 209.77 140.62 211.85L137.05 211.59L137.11 211.37L140.33 210.52L147.25 182.82L199.59 152.48C198.51 155.76 198.16 160.61 198.25 166.22Z" fill="black"/>
<path id="Vector_20" opacity="0.1" d="M17.11 174.93L29.33 182.26C28.1 182.57 26.54 183.75 24.79 185.47C23.79 182.47 17.37 178.35 14.47 176.59C16.05 175.51 17.11 174.93 17.11 174.93Z" fill="black"/>
<path id="Vector_21" opacity="0.1" d="M134.9 212.1C134.764 212.176 134.607 212.206 134.452 212.187C134.297 212.167 134.153 212.098 134.04 211.99C134.32 212.069 134.609 212.106 134.9 212.1V212.1Z" fill="black"/>
<path id="Vector_22" d="M162.51 88.99C162.51 88.99 151.51 90.21 143.77 82.07C143.77 82.07 111.19 91.44 100.19 112.62C89.19 133.8 14.25 175.34 14.25 175.34C14.25 175.34 27.25 182.67 26.06 186.34L75.34 157.83C75.34 157.83 92.85 145.2 97.74 142.35C102.63 139.5 129.51 121.99 135.21 169.64C140.91 217.29 135.21 211.64 135.21 211.64C135.21 211.64 143.36 214.49 155.21 191.64C167.06 168.79 203.68 163.54 203.68 163.54L205.68 139.54C205.68 139.54 212.95 123.62 207.38 116.98C205.681 115.026 204.554 112.642 204.12 110.09C203.19 103.99 204.12 93.82 217.12 85.37C237.12 72.37 244.82 61.75 244.82 61.75C244.82 61.75 245.23 54.01 233.01 50.35C220.79 46.69 171.1 26.73 171.1 26.73L169.47 33.65L208.57 61.35C208.57 61.35 189.02 77.23 173.57 76.83C173.51 76.76 176.36 88.58 162.51 88.99Z" fill="#98E6B9"/>
<path id="Vector_23" opacity="0.1" d="M170.06 70.02C169.097 66.7382 168.345 63.398 167.81 60.02L146.22 65.76C147.165 69.8799 146.996 74.1771 145.73 78.21C150.142 79.3872 154.804 79.2371 159.131 77.7786C163.459 76.3201 167.26 73.6178 170.06 70.01V70.02Z" fill="black"/>
<path id="Vector_24" d="M152.13 77.79C164.954 77.79 175.35 67.3941 175.35 54.57C175.35 41.746 164.954 31.35 152.13 31.35C139.306 31.35 128.91 41.746 128.91 54.57C128.91 67.3941 139.306 77.79 152.13 77.79Z" fill="#FFD2C3"/>
<path id="Vector_25" opacity="0.1" d="M164.47 1.75999C170.91 2.48999 177.04 5.25999 183.38 6.75999C184.964 7.25681 186.652 7.3224 188.27 6.95C190.73 6.19 192.73 3.60999 195.27 3.68999C196.84 3.68999 198.27 4.80998 199.53 5.83998C201.617 7.42362 203.58 9.16544 205.4 11.05C209.77 15.8 212.49 22.2 216.48 27.36C220.47 32.52 226.76 36.54 232.43 34.17C228.58 49.17 215.94 60.64 202.28 61.57C196.83 61.94 191.28 60.81 185.97 62.41C184.654 62.9465 183.265 63.2835 181.85 63.41C178.85 63.41 176.37 60.62 174.47 57.91C170.03 51.53 166.47 44.29 161.47 38.48C159.82 36.56 157.87 34.73 155.54 34.38C153.21 34.03 151.06 35.14 148.98 36.22C145.55 38 142.04 39.84 139.38 42.88C136.72 45.92 135.04 50.47 136.14 54.59C136.73 56.81 138.09 58.81 138.14 61.14C138.14 64.84 134.92 67.55 134.27 71.14C134.127 72.6555 134.073 74.1782 134.11 75.7C133.82 80.64 130.6 84.7 127.22 87.79C125.91 89 124.45 90.29 124.07 92.16C123.81 93.43 124.07 94.78 123.9 96.07C123.41 99.28 120.21 100.9 117.38 101.32C114.075 101.804 110.7 101.404 107.6 100.16C111.6 98.29 113.99 92.96 113.07 88.16C111.81 81.55 105.17 76.81 105.73 70.07C106.043 68.006 106.663 66.0005 107.57 64.12C109.019 60.4838 110.072 56.7019 110.71 52.84C111.364 49.8677 111.299 46.782 110.52 43.84C109.67 41.25 107.94 39.19 106.46 37C104.456 34.0227 102.874 30.7818 101.76 27.37C101.356 26.3616 101.202 25.2708 101.31 24.19C101.632 22.9151 102.329 21.7658 103.31 20.89C106.95 17.08 110.85 13.11 115.69 12.01C118.003 11.6248 120.355 11.5341 122.69 11.74C126.767 11.8697 130.849 11.6959 134.9 11.22C138.24 10.83 143.9 10.88 146.72 8.7C149.35 6.7 150.84 4.14998 154.09 2.86998C157.407 1.65567 160.971 1.27452 164.47 1.75999V1.75999Z" fill="black"/>
<path id="Vector_26" opacity="0.1" d="M177.38 241.52C177.38 241.52 190.82 267.99 186.75 276.14Z" fill="black"/>
<path id="Vector_27" opacity="0.1" d="M201.75 312.32L182.07 287.32V287.76C182.07 287.76 180.93 279.68 184.68 282.4C192.89 288.34 206.03 298.08 206.31 299.76C206.59 301.44 203.65 308.18 201.75 312.32Z" fill="black"/>
<g id="Group" opacity="0.1">
<path id="Vector_28" opacity="0.1" d="M173.9 76.76C173.9 76.76 175.56 83.64 170.19 87.08C178.46 85.66 178.82 79.23 178.57 76.43C177.026 76.6799 175.463 76.7903 173.9 76.76V76.76Z" fill="black"/>
<path id="Vector_29" opacity="0.1" d="M19.15 173.71C19.15 173.71 94.09 132.17 105.09 110.99C112.98 95.79 131.99 86.68 142.09 82.74C134.72 85.21 109.92 94.68 100.6 112.62C89.6 133.8 14.66 175.34 14.66 175.34L19.15 173.71Z" fill="black"/>
<path id="Vector_30" opacity="0.1" d="M188.48 73.53C201.23 69.53 213.42 59.66 213.42 59.66L174.32 31.96L175.21 28.16L171.47 26.66L169.84 33.58L208.94 61.28C202.666 66.2122 195.791 70.3284 188.48 73.53V73.53Z" fill="black"/>
<path id="Vector_31" opacity="0.1" d="M188.73 167.39C193.726 165.684 198.853 164.39 204.06 163.52L204.13 162.73C198.884 163.882 193.735 165.44 188.73 167.39V167.39Z" fill="black"/>
<path id="Vector_32" opacity="0.1" d="M141.34 210.06H140.98C140.844 210.136 140.687 210.166 140.532 210.147C140.377 210.127 140.233 210.058 140.12 209.95C140.4 210.028 140.69 210.065 140.98 210.06C142.32 209.28 144.33 203.2 140.12 168C135.62 130.42 117.96 133.37 108.29 137.69C118.17 134.97 131.77 137.32 135.64 169.63C139.85 204.83 137.84 210.92 136.5 211.69C138.237 211.625 139.918 211.059 141.34 210.06Z" fill="black"/>
<path id="Vector_33" opacity="0.1" d="M136.5 211.7C136.21 211.705 135.92 211.668 135.64 211.59C135.753 211.698 135.897 211.767 136.052 211.786C136.207 211.806 136.364 211.776 136.5 211.7V211.7Z" fill="black"/>
</g>
<path id="Vector_34" d="M164.47 0.969978C170.91 1.69998 177.04 4.46998 183.38 5.96998C184.964 6.46679 186.652 6.53238 188.27 6.15998C190.73 5.39998 192.73 2.82 195.27 2.9C196.84 2.9 198.27 4.02 199.53 5.05C201.617 6.63364 203.58 8.37543 205.4 10.26C209.77 15.01 212.49 21.41 216.48 26.57C220.47 31.73 226.76 35.75 232.43 33.38C228.58 48.38 215.94 59.85 202.28 60.78C196.83 61.15 191.28 60.02 185.97 61.62C184.654 62.1565 183.265 62.4935 181.85 62.62C178.85 62.62 176.37 59.83 174.47 57.12C170.03 50.74 166.47 43.5 161.47 37.69C159.82 35.77 157.87 33.94 155.54 33.59C153.21 33.24 151.06 34.35 148.98 35.43C145.55 37.21 142.04 39.05 139.38 42.09C136.72 45.13 135.04 49.68 136.14 53.8C136.73 56.02 138.09 58.02 138.14 60.35C138.14 64.05 134.92 66.76 134.27 70.35C134.127 71.8655 134.073 73.3882 134.11 74.91C133.82 79.85 130.6 83.91 127.22 87C125.91 88.21 124.45 89.5 124.07 91.37C123.81 92.64 124.07 93.99 123.9 95.28C123.41 98.49 120.21 100.11 117.38 100.53C114.075 101.014 110.7 100.614 107.6 99.37C111.6 97.5 113.99 92.17 113.07 87.37C111.81 80.76 105.17 76.02 105.73 69.28C106.043 67.216 106.663 65.2105 107.57 63.33C109.019 59.6938 110.072 55.9119 110.71 52.05C111.364 49.0777 111.299 45.9921 110.52 43.05C109.67 40.46 107.94 38.4 106.46 36.21C104.456 33.2327 102.874 29.9918 101.76 26.58C101.356 25.5716 101.202 24.4808 101.31 23.4C101.632 22.1251 102.329 20.9758 103.31 20.1C106.95 16.29 110.85 12.32 115.69 11.22C118.003 10.8348 120.355 10.744 122.69 10.95C126.767 11.0797 130.849 10.9059 134.9 10.43C138.24 10.04 143.9 10.09 146.72 7.90998C149.35 5.90998 150.84 3.35999 154.09 2.07999C157.407 0.865682 160.971 0.484504 164.47 0.969978V0.969978Z" fill="#313042"/>
<path id="Vector_35" d="M44.68 361.76C44.68 361.76 62.18 396.11 47.92 414.9C33.66 433.69 49.22 484.9 49.22 484.9" stroke="#F2C384" stroke-miterlimit="10"/>
<path id="Vector_36" d="M49.9 351.02C49.9 357.64 45.04 363.02 45.04 363.02C45.04 363.02 40.18 357.65 40.18 351.02C40.18 344.39 45.04 339.02 45.04 339.02C45.04 339.02 49.9 344.4 49.9 351.02Z" fill="#F2C384"/>
<path id="Vector_37" d="M53.75 361.76C53.75 361.76 36.25 396.11 50.51 414.9C64.77 433.69 49.21 484.9 49.21 484.9" stroke="#F2C384" stroke-miterlimit="10"/>
<path id="Vector_38" d="M48.57 351.02C48.57 357.64 53.43 363.02 53.43 363.02C53.43 363.02 58.29 357.65 58.29 351.02C58.29 344.39 53.43 339.02 53.43 339.02C53.43 339.02 48.57 344.4 48.57 351.02Z" fill="#F2C384"/>
<path id="Vector_39" opacity="0.1" d="M48.57 351.02C48.57 357.64 53.43 363.02 53.43 363.02C53.43 363.02 58.29 357.65 58.29 351.02C58.29 344.39 53.43 339.02 53.43 339.02C53.43 339.02 48.57 344.4 48.57 351.02Z" fill="black"/>
<path id="Vector_40" d="M60.9 361.76C60.9 361.76 78.4 396.11 64.14 414.9C49.88 433.69 65.44 484.9 65.44 484.9" stroke="#F2C384" stroke-miterlimit="10"/>
<path id="Vector_41" d="M66.07 351.02C66.07 357.64 61.21 363.02 61.21 363.02C61.21 363.02 56.35 357.65 56.35 351.02C56.35 344.39 61.21 339.02 61.21 339.02C61.21 339.02 66.07 344.4 66.07 351.02Z" fill="#F2C384"/>
<path id="Vector_42" d="M63.34 378.54C58.75 383.31 51.52 383.81 51.52 383.81C51.52 383.81 51.74 376.57 56.33 371.81C60.92 367.05 68.15 366.54 68.15 366.54C68.15 366.54 67.9 373.76 63.34 378.54Z" fill="#F2C384"/>
<path id="Vector_43" d="M63.8 402.24C59.21 407.01 51.98 407.51 51.98 407.51C51.98 407.51 52.2 400.27 56.79 395.51C61.38 390.75 68.61 390.24 68.61 390.24C68.61 390.24 68.39 397.46 63.8 402.24Z" fill="#F2C384"/>
<path id="Vector_44" d="M38.9 415.27C43.24 420.27 43.09 427.51 43.09 427.51C43.09 427.51 35.9 426.64 31.56 421.64C27.22 416.64 27.37 409.4 27.37 409.4C27.37 409.4 34.56 410.27 38.9 415.27Z" fill="#F2C384"/>
<path id="Vector_45" d="M42.9 364.76C48.42 368.42 50.21 375.44 50.21 375.44C50.21 375.44 43.05 376.53 37.53 372.87C32.01 369.21 30.22 362.19 30.22 362.19C30.22 362.19 37.41 361.08 42.9 364.76Z" fill="#F2C384"/>
<path id="Vector_46" opacity="0.1" d="M42.9 364.76C48.42 368.42 50.21 375.44 50.21 375.44C50.21 375.44 43.05 376.53 37.53 372.87C32.01 369.21 30.22 362.19 30.22 362.19C30.22 362.19 37.41 361.08 42.9 364.76Z" fill="black"/>
<path id="Vector_47" d="M69.95 361.76C69.95 361.76 52.45 396.11 66.71 414.9C80.97 433.69 65.41 484.9 65.41 484.9" stroke="#F2C384" stroke-miterlimit="10"/>
<path id="Vector_48" d="M64.77 351.02C64.77 357.64 69.63 363.02 69.63 363.02C69.63 363.02 74.49 357.65 74.49 351.02C74.49 344.39 69.63 339.02 69.63 339.02C69.63 339.02 64.77 344.4 64.77 351.02Z" fill="#F2C384"/>
<path id="Vector_49" opacity="0.1" d="M64.77 351.02C64.77 357.64 69.63 363.02 69.63 363.02C69.63 363.02 74.49 357.65 74.49 351.02C74.49 344.39 69.63 339.02 69.63 339.02C69.63 339.02 64.77 344.4 64.77 351.02Z" fill="black"/>
<path id="Vector_50" d="M66.17 379.05C61.52 383.77 61.17 391.05 61.17 391.05C61.17 391.05 68.4 390.64 73.05 385.92C77.7 381.2 78.05 373.92 78.05 373.92C78.05 373.92 70.82 374.33 66.17 379.05Z" fill="#F2C384"/>
<path id="Vector_51" opacity="0.1" d="M66.17 379.05C61.52 383.77 61.17 391.05 61.17 391.05C61.17 391.05 68.4 390.64 73.05 385.92C77.7 381.2 78.05 373.92 78.05 373.92C78.05 373.92 70.82 374.33 66.17 379.05Z" fill="black"/>
<path id="Vector_52" d="M75.28 411.86C70.63 416.58 70.28 423.86 70.28 423.86C70.28 423.86 77.51 423.45 82.16 418.73C86.81 414.01 87.16 406.73 87.16 406.73C87.16 406.73 79.9 407.14 75.28 411.86Z" fill="#F2C384"/>
<path id="Vector_53" d="M61.9 404.65C61.9 404.65 72.43 388.05 87.22 387.65" stroke="#F2C384" stroke-miterlimit="10"/>
<path id="Vector_54" d="M53.67 394.62C53.67 394.62 43.14 378.02 28.35 377.62" stroke="#F2C384" stroke-miterlimit="10"/>
<path id="Vector_55" d="M52.3 418.32C52.3 418.32 62.83 401.72 77.62 401.32" stroke="#F2C384" stroke-miterlimit="10"/>
<path id="Vector_56" d="M86.71 390.29C88.2177 390.29 89.44 389.068 89.44 387.56C89.44 386.052 88.2177 384.83 86.71 384.83C85.2023 384.83 83.98 386.052 83.98 387.56C83.98 389.068 85.2023 390.29 86.71 390.29Z" fill="#F2C384"/>
<path id="Vector_57" d="M28.61 380.49C30.1177 380.49 31.34 379.268 31.34 377.76C31.34 376.252 30.1177 375.03 28.61 375.03C27.1023 375.03 25.88 376.252 25.88 377.76C25.88 379.268 27.1023 380.49 28.61 380.49Z" fill="#F2C384"/>
<path id="Vector_58" d="M60.05 423.76C60.05 423.76 49.52 407.16 34.73 406.76" stroke="#F2C384" stroke-miterlimit="10"/>
<path id="Vector_59" d="M34.99 409.65C36.4978 409.65 37.72 408.428 37.72 406.92C37.72 405.412 36.4978 404.19 34.99 404.19C33.4823 404.19 32.26 405.412 32.26 406.92C32.26 408.428 33.4823 409.65 34.99 409.65Z" fill="#F2C384"/>
<path id="Vector_60" d="M77.82 404.19C79.3277 404.19 80.55 402.968 80.55 401.46C80.55 399.952 79.3277 398.73 77.82 398.73C76.3123 398.73 75.09 399.952 75.09 401.46C75.09 402.968 76.3123 404.19 77.82 404.19Z" fill="#F2C384"/>
<path id="Vector_61" d="M35 486C35 486 172.691 459 258 486Z" fill="#3F3D56"/>
</g>
<defs>
<linearGradient id="paint0_linear" x1="376.874" y1="320.353" x2="376.874" y2="320.305" gradientUnits="userSpaceOnUse">
<stop stop-color="#808080" stop-opacity="0.25"/>
<stop offset="0.54" stop-color="#808080" stop-opacity="0.12"/>
<stop offset="1" stop-color="#808080" stop-opacity="0.1"/>
</linearGradient>
</defs>
</svg>
