<svg width="778" height="762" viewBox="0 0 778 762" fill="none" xmlns="http://www.w3.org/2000/svg">
<g id="meditation 1" clip-path="url(#clip0)">
<path id="Vector" d="M761.48 635.26H16.48C7.35998 635.26 -0.0300293 639.85 -0.0300293 645.51V751.51C-0.0300293 757.17 7.35998 761.76 16.48 761.76H761.48C770.6 761.76 778 757.17 778 751.51V645.51C778 639.85 770.6 635.26 761.48 635.26Z" fill="#98E6B9"/>
<path id="Vector_2" opacity="0.2" d="M761.48 635.26H16.48C7.35998 635.26 -0.0300293 639.85 -0.0300293 645.51V751.51C-0.0300293 757.17 7.35998 761.76 16.48 761.76H761.48C770.6 761.76 778 757.17 778 751.51V645.51C778 639.85 770.6 635.26 761.48 635.26Z" fill="black"/>
<path id="Vector_3" d="M763.91 635.26H14.09C6.30831 635.26 0 641.568 0 649.35V740.29C0 748.072 6.30831 754.38 14.09 754.38H763.91C771.692 754.38 778 748.072 778 740.29V649.35C778 641.568 771.692 635.26 763.91 635.26Z" fill="#98E6B9"/>
<path id="Vector_4" opacity="0.05" d="M778 651.69H0V661.96H778V651.69Z" fill="white"/>
<path id="Vector_5" opacity="0.05" d="M778 675.65H0V685.92H778V675.65Z" fill="white"/>
<path id="Vector_6" opacity="0.05" d="M778 699.61H0V709.88H778V699.61Z" fill="white"/>
<path id="Vector_7" opacity="0.05" d="M778 723.57H0V733.84H778V723.57Z" fill="white"/>
<g id="Group" opacity="0.5" filter="url(#filter0_d)">
<g id="Vector_8" opacity="0.5" filter="url(#filter1_d)">
<path d="M676.994 211.121C672.767 208.097 667.591 206.696 662.416 207.177C657.24 207.658 652.411 209.988 648.813 213.739C644.927 217.971 642.843 223.552 643.006 229.296C643.169 235.039 645.565 240.493 649.686 244.498L676.617 271.27C677.461 272.114 678.606 272.588 679.8 272.588C680.994 272.588 682.139 272.114 682.983 271.27L709.755 244.339C713.854 240.313 716.221 234.848 716.355 229.105C716.488 223.361 714.377 217.792 710.469 213.58C706.859 209.848 702.024 207.542 696.852 207.087C691.679 206.631 686.515 208.057 682.309 211.102C681.536 211.66 680.608 211.962 679.654 211.966C678.701 211.969 677.771 211.674 676.994 211.121Z" fill="#F2C384"/>
<path d="M676.703 211.528L676.704 211.529C677.566 212.142 678.599 212.469 679.656 212.466C680.714 212.462 681.744 212.126 682.601 211.507L682.602 211.507C686.711 208.532 691.755 207.14 696.808 207.585C701.859 208.03 706.58 210.28 710.106 213.924C713.923 218.04 715.985 223.481 715.855 229.093C715.725 234.706 713.411 240.048 709.405 243.982L709.401 243.987L682.629 270.917C682.629 270.917 682.629 270.917 682.629 270.917C681.879 271.667 680.861 272.088 679.8 272.088C678.739 272.088 677.721 271.667 676.971 270.917L676.97 270.916L650.038 244.143L650.038 244.143L650.034 244.139C646.007 240.225 643.665 234.895 643.506 229.281C643.347 223.67 645.382 218.217 649.178 214.081C652.692 210.419 657.408 208.144 662.462 207.675C667.518 207.205 672.574 208.573 676.703 211.528ZM643.006 229.296C643.169 235.039 645.565 240.493 649.686 244.498L648.813 213.739C644.927 217.971 642.843 223.552 643.006 229.296Z" stroke="#F2C384"/>
</g>
<path id="Vector_9" opacity="0.5" d="M679.988 270.219C679.679 270.795 679.518 271.439 679.518 272.093C679.518 272.747 679.679 273.391 679.988 273.967C680.369 274.53 680.72 275.113 681.039 275.712C681.733 277.438 680.524 279.322 679.294 280.73C678.521 281.622 677.668 282.812 678.164 283.903C678.408 284.295 678.716 284.644 679.076 284.934C679.899 285.726 680.504 286.717 680.831 287.811C681.158 288.905 681.197 290.065 680.944 291.179C680.69 292.292 680.153 293.322 679.385 294.166C678.616 295.011 677.642 295.643 676.557 296" stroke="#F2C384" stroke-miterlimit="10"/>
</g>
<g id="Group_2" opacity="0.5" filter="url(#filter2_d)">
<path id="Vector_10" opacity="0.5" d="M94.7929 285.297L94.794 285.297C95.6124 285.88 96.5926 286.19 97.5968 286.187C98.6011 286.183 99.5788 285.865 100.393 285.277L100.393 285.276C104.266 282.473 109.02 281.161 113.782 281.58C118.543 281.999 122.993 284.121 126.316 287.555C129.913 291.434 131.856 296.562 131.733 301.851C131.611 307.142 129.43 312.176 125.654 315.885L125.654 315.885L125.65 315.889L113.016 328.598L100.383 341.306C100.383 341.306 100.383 341.306 100.382 341.306C99.6795 342.009 98.7262 342.404 97.7323 342.404C96.7381 342.404 95.7847 342.009 95.0817 341.306L95.0807 341.305L69.6626 316.037L69.6626 316.037L69.6586 316.033C65.863 312.344 63.6556 307.32 63.5055 302.029C63.3554 296.74 65.2731 291.601 68.8511 287.703C72.1631 284.251 76.6076 282.108 81.3708 281.665C86.1359 281.223 90.901 282.512 94.7929 285.297Z" fill="#F2C384" stroke="#F2C384"/>
<path id="Vector_11" opacity="0.5" d="M97.9101 340.668C97.6185 341.211 97.4659 341.819 97.4659 342.436C97.4659 343.054 97.6185 343.661 97.9101 344.205C98.2694 344.736 98.6006 345.286 98.9021 345.852C99.5572 347.481 98.4155 349.259 97.2551 350.588C96.5251 351.43 95.7202 352.553 96.1882 353.582C96.4183 353.953 96.7094 354.282 97.0491 354.556C97.8261 355.303 98.3968 356.238 98.7057 357.271C99.0146 358.304 99.0511 359.399 98.8119 360.45C98.5727 361.501 98.0658 362.472 97.3404 363.269C96.6151 364.067 95.6959 364.663 94.6721 365" stroke="#F2C384" stroke-miterlimit="10"/>
</g>
<g id="Group_3" opacity="0.5" filter="url(#filter3_d)">
<path id="Vector_12" opacity="0.5" d="M472.501 4.01902L472.502 4.01985C473.268 4.56464 474.186 4.85573 475.125 4.85222C476.065 4.84872 476.981 4.55078 477.743 4.00029L477.743 4.00005C481.332 1.40228 485.738 0.186063 490.151 0.57458C494.563 0.962948 498.687 2.92876 501.767 6.11144C505.1 9.70665 506.902 14.4596 506.788 19.3613C506.674 24.2648 504.653 28.9306 501.154 32.3677L501.154 32.3676L501.15 32.3719L477.687 55.9732C477.687 55.9733 477.687 55.9735 477.687 55.9736C477.041 56.6194 476.165 56.9821 475.251 56.9821C474.337 56.9821 473.461 56.6192 472.815 55.9732L472.814 55.9722L449.212 32.5088L449.212 32.5088L449.208 32.5049C445.69 29.0858 443.644 24.4297 443.505 19.526C443.366 14.6242 445.143 9.8613 448.459 6.24878C451.528 3.04996 455.647 1.06363 460.062 0.653566C464.478 0.243339 468.894 1.43813 472.501 4.01902Z" fill="#F2C384" stroke="#F2C384"/>
<path id="Vector_13" opacity="0.5" d="M475.416 55.4057C475.145 55.9108 475.004 56.475 475.004 57.0481C475.004 57.6212 475.145 58.1854 475.416 58.6905C475.75 59.1839 476.057 59.6944 476.337 60.22C476.946 61.7321 475.885 63.3832 474.808 64.6172C474.13 65.3993 473.383 66.3552 473.817 67.3981C474.031 67.7422 474.301 68.0477 474.617 68.3018C475.338 68.9956 475.868 69.864 476.155 70.823C476.442 71.7819 476.476 72.7987 476.254 73.7747C476.032 74.7506 475.561 75.6526 474.887 76.3929C474.214 77.1333 473.36 77.6869 472.409 78" stroke="#F2C384" stroke-miterlimit="10"/>
</g>
<g id="Group_4" opacity="0.5">
<path id="Vector_14" opacity="0.5" d="M555 141.18H552V158.18H555V141.18Z" fill="#F2C384"/>
<path id="Vector_15" opacity="0.5" d="M562 151.18V148.18H545V151.18H562Z" fill="#F2C384"/>
</g>
<g id="Group_5" opacity="0.5">
<path id="Vector_16" opacity="0.5" d="M209 402.18H206V419.18H209V402.18Z" fill="#F2C384"/>
<path id="Vector_17" opacity="0.5" d="M216 412.18V409.18H199V412.18H216Z" fill="#F2C384"/>
</g>
<g id="Group_6" opacity="0.5">
<path id="Vector_18" opacity="0.5" d="M131 120.18H128V137.18H131V120.18Z" fill="#F2C384"/>
<path id="Vector_19" opacity="0.5" d="M138 130.18V127.18H121V130.18H138Z" fill="#F2C384"/>
</g>
<g id="Group_7" opacity="0.5">
<path id="Vector_20" opacity="0.5" d="M664 383.18H661V400.18H664V383.18Z" fill="#F2C384"/>
<path id="Vector_21" opacity="0.5" d="M671 393.18V390.18H654V393.18H671Z" fill="#F2C384"/>
</g>
<path id="Vector_22" opacity="0.5" d="M548.09 261.79C547.273 261.421 546.619 260.766 546.251 259.948C545.882 259.131 545.825 258.207 546.09 257.35C546.141 257.219 546.168 257.08 546.17 256.94V256.94C546.208 256.534 546.11 256.128 545.891 255.784C545.673 255.44 545.346 255.178 544.963 255.039C544.58 254.901 544.161 254.894 543.774 255.019C543.386 255.144 543.05 255.394 542.82 255.73V255.73C542.742 255.843 542.675 255.964 542.62 256.09C542.251 256.907 541.596 257.561 540.778 257.929C539.961 258.298 539.037 258.355 538.18 258.09C538.047 258.048 537.909 258.021 537.77 258.01V258.01C537.374 257.984 536.981 258.087 536.648 258.304C536.316 258.52 536.062 258.838 535.925 259.21C535.788 259.582 535.775 259.988 535.887 260.369C536 260.749 536.232 261.083 536.55 261.32V261.32C536.662 261.4 536.783 261.467 536.91 261.52C537.729 261.888 538.384 262.542 538.753 263.36C539.121 264.179 539.177 265.103 538.91 265.96C538.869 266.093 538.842 266.231 538.83 266.37C538.804 266.766 538.908 267.159 539.124 267.492C539.34 267.824 539.658 268.078 540.03 268.215C540.402 268.352 540.808 268.365 541.189 268.253C541.569 268.14 541.903 267.908 542.14 267.59V267.59C542.222 267.479 542.289 267.358 542.34 267.23C542.703 266.403 543.356 265.738 544.176 265.36C544.996 264.982 545.926 264.918 546.79 265.18C546.92 265.222 547.054 265.249 547.19 265.26V265.26C547.586 265.286 547.979 265.182 548.312 264.966C548.644 264.75 548.898 264.432 549.035 264.06C549.172 263.688 549.185 263.282 549.073 262.901C548.96 262.521 548.728 262.187 548.41 261.95V261.95C548.31 261.885 548.202 261.831 548.09 261.79Z" fill="#F2C384"/>
<path id="Vector_23" opacity="0.5" d="M183.09 223.79C182.273 223.421 181.619 222.766 181.251 221.948C180.882 221.131 180.825 220.207 181.09 219.35C181.141 219.219 181.168 219.08 181.17 218.94V218.94C181.208 218.534 181.11 218.128 180.891 217.784C180.673 217.44 180.346 217.178 179.963 217.039C179.58 216.901 179.161 216.894 178.774 217.019C178.386 217.144 178.05 217.394 177.82 217.73V217.73C177.742 217.843 177.675 217.964 177.62 218.09C177.251 218.907 176.596 219.561 175.778 219.929C174.961 220.298 174.037 220.355 173.18 220.09C173.047 220.048 172.909 220.021 172.77 220.01V220.01C172.374 219.984 171.981 220.087 171.648 220.304C171.316 220.52 171.062 220.838 170.925 221.21C170.788 221.582 170.775 221.988 170.887 222.369C171 222.749 171.232 223.083 171.55 223.32C171.662 223.4 171.783 223.467 171.91 223.52C172.738 223.879 173.404 224.53 173.782 225.349C174.16 226.168 174.224 227.097 173.96 227.96C173.919 228.093 173.892 228.231 173.88 228.37C173.854 228.766 173.957 229.159 174.174 229.492C174.39 229.824 174.708 230.078 175.08 230.215C175.452 230.352 175.858 230.365 176.239 230.253C176.619 230.14 176.953 229.908 177.19 229.59V229.59C177.272 229.479 177.339 229.358 177.39 229.23C177.752 228.403 178.406 227.738 179.226 227.36C180.046 226.982 180.976 226.918 181.84 227.18C181.97 227.222 182.104 227.249 182.24 227.26C182.636 227.286 183.029 227.182 183.362 226.966C183.694 226.75 183.948 226.432 184.085 226.06C184.222 225.688 184.235 225.282 184.123 224.901C184.01 224.521 183.778 224.187 183.46 223.95V223.95C183.344 223.881 183.22 223.827 183.09 223.79V223.79Z" fill="#F2C384"/>
<path id="Vector_24" opacity="0.5" d="M327.09 28.79C326.273 28.4206 325.619 27.7657 325.251 26.9481C324.882 26.1305 324.825 25.2067 325.09 24.35C325.141 24.2191 325.168 24.0803 325.17 23.94V23.94C325.208 23.5343 325.11 23.1275 324.891 22.7836C324.673 22.4396 324.346 22.1779 323.963 22.0394C323.58 21.901 323.161 21.8937 322.774 22.0187C322.386 22.1437 322.05 22.3939 321.82 22.73V22.73C321.742 22.8431 321.675 22.9637 321.62 23.09C321.259 23.9162 320.608 24.5813 319.79 24.9592C318.971 25.3371 318.043 25.4014 317.18 25.14C317.047 25.098 316.909 25.0712 316.77 25.06V25.06C316.374 25.0345 315.981 25.1375 315.648 25.3537C315.316 25.5699 315.062 25.8877 314.925 26.2598C314.788 26.6319 314.775 27.0384 314.887 27.4186C315 27.7989 315.232 28.1326 315.55 28.37V28.37C315.662 28.4501 315.783 28.5172 315.91 28.57C316.738 28.9288 317.404 29.5798 317.782 30.3988C318.16 31.2178 318.224 32.1473 317.96 33.01C317.919 33.1435 317.892 33.2809 317.88 33.42V33.42C317.854 33.8157 317.957 34.2091 318.174 34.5416C318.39 34.874 318.708 35.1277 319.08 35.2649C319.452 35.402 319.858 35.4153 320.239 35.3027C320.619 35.1901 320.953 34.9576 321.19 34.64V34.64C321.272 34.5292 321.339 34.4082 321.39 34.28C321.752 33.453 322.406 32.7876 323.226 32.4099C324.046 32.0321 324.976 31.9681 325.84 32.23C325.97 32.272 326.104 32.2988 326.24 32.31V32.31C326.636 32.3355 327.029 32.2325 327.362 32.0163C327.694 31.8001 327.948 31.4822 328.085 31.1101C328.222 30.738 328.235 30.3316 328.123 29.9513C328.01 29.5711 327.778 29.2374 327.46 29V29C327.347 28.9136 327.222 28.843 327.09 28.79V28.79Z" fill="#F2C384"/>
<path id="Vector_25" d="M451.82 321.79C457.06 330.97 463.82 339.79 472.82 342.96C475.65 343.96 478.82 344.53 480.82 347.08C482.102 348.955 482.934 351.101 483.25 353.35C486.52 369.41 484.33 387.16 490.75 401.85C495.95 413.74 505.9 421.48 513.81 431.07C521.72 440.66 527.92 455 523.13 467.12C521.736 470.488 519.578 473.485 516.828 475.877C514.077 478.268 510.809 479.988 507.28 480.9C500.66 482.7 493.75 481.95 487.03 480.76C478.17 479.19 469.15 476.76 461.77 470.76C449 460.38 443.6 441.76 436.92 425.19C433.78 417.43 429.61 409.3 422.71 406.53C414.81 403.35 405.92 408.66 400.79 416.45C395.66 424.24 393.39 434.03 390.9 443.45C388.1 454.09 384.56 465.13 377.19 472.09C373.998 475.204 369.972 477.326 365.599 478.199C361.226 479.072 356.693 478.659 352.55 477.01C344.35 473.6 337.87 464.95 335.98 454.92C333.08 439.47 340.04 420.92 331.49 408.7C328.17 403.97 323.1 401.39 319.54 396.91C315.09 391.3 313.47 383.31 313.12 375.64C312.37 359.26 317.98 341.01 330.63 334.23C334.01 332.42 337.78 331.47 340.75 328.83C350.75 319.94 346.03 298.11 356.38 289.83C359.38 287.42 363.14 286.75 366.76 286.24C376.9 284.84 386.97 284.68 397.16 284.71C403.75 284.71 410.54 282.51 417.04 282.99C434.54 284.3 443.33 306.92 451.82 321.79Z" fill="#313042"/>
<path id="Vector_26" d="M264.1 652.85L267.93 698.22L535.82 696.62L530.71 647.09L440.14 636.55L281.32 646.14L264.1 652.85Z" fill="#313042"/>
<path id="Vector_27" opacity="0.05" d="M264.1 652.85L267.93 698.22L535.82 696.62L530.71 647.09L440.14 636.55L281.32 646.14L264.1 652.85Z" fill="#313042"/>
<path id="Vector_28" d="M440.37 684.55L351.19 692.9C351.19 692.9 412.29 708.46 447.96 700.9L440.37 684.55Z" fill="#F7C4A7"/>
<path id="Vector_29" opacity="0.1" d="M440.37 684.55L351.19 692.9C351.19 692.9 412.29 708.46 447.96 700.9L440.37 684.55Z" fill="black"/>
<path id="Vector_30" d="M372.44 365.02C372.44 365.02 389.9 410.94 364.09 431.43C338.28 451.92 359.54 509.23 359.54 509.23L458.97 504.67C458.97 504.67 468.83 440.16 463.52 426.5C463.52 426.5 439.99 433.33 434.68 418.91C429.37 404.49 425.57 365.02 425.57 365.02H372.44Z" fill="#FFD2C3"/>
<path id="Vector_31" d="M349.67 642.81C349.67 642.81 265.8 640.91 241.14 634.81C216.48 628.71 195.22 657.99 203.95 674.73C212.68 691.47 236.95 702.81 236.95 702.81C236.95 702.81 361.81 708.88 388.75 691.81C388.75 691.81 399 662.59 388.75 656.9H258.59L354.59 655L349.67 642.81Z" fill="#313042"/>
<path id="Vector_32" d="M482.87 634.08C482.87 634.08 510.96 640.15 549.66 624.97C549.66 624.97 622.15 622.7 597.86 668.97C573.57 715.24 439.23 703.89 439.23 703.89C439.23 703.89 431.23 686.81 439.23 682.26C447.23 677.71 516.65 648.48 538.28 650L478.28 661.76L482.87 634.08Z" fill="#313042"/>
<path id="Vector_33" opacity="0.1" d="M429.01 387.11C427.56 376.3 426.71 367.49 426.71 367.49H373.58C376.034 374.448 377.737 381.649 378.66 388.97C386.11 394.186 395.059 396.827 404.147 396.491C413.235 396.156 421.965 392.862 429.01 387.11V387.11Z" fill="black"/>
<path id="Vector_34" d="M401.47 394.05C424.522 394.05 443.21 375.362 443.21 352.31C443.21 329.258 424.522 310.57 401.47 310.57C378.418 310.57 359.73 329.258 359.73 352.31C359.73 375.362 378.418 394.05 401.47 394.05Z" fill="#FFD2C3"/>
<path id="Vector_35" d="M376.99 424.98C376.99 424.98 326.9 434.47 320.83 446.98C314.76 459.49 315.52 502.39 315.52 502.39C315.52 502.39 317.79 572.59 300.34 581.32L235.06 626.86C235.06 626.86 188.77 586.26 177.38 610.16C165.99 634.06 232.03 642.8 232.03 642.8L305.65 620.8L329.18 605.62C329.18 605.62 340.18 600.31 341.32 587.4L351.19 509.23L390.66 497.84H454.41L462.95 473.46C462.95 473.46 478.7 486.08 476.42 497.84C474.14 509.6 480.22 585.84 480.22 585.84C480.22 585.84 485.15 602.91 495.4 607.84L554.6 629.09C554.6 629.09 617.21 635.16 621.39 607.84C625.57 580.52 559.91 611.73 559.91 611.73L512.82 575.26C512.82 575.26 509.03 560.08 507.51 549.45C505.99 538.82 503.72 493.29 503.72 493.29C503.72 493.29 518.14 445.47 476.39 437.13L422.5 420.43L376.99 424.98Z" fill="#FFD2C3"/>
<path id="Vector_36" opacity="0.1" d="M343.41 434.66L351.19 486.08C351.19 486.08 343.19 509.99 351.19 533.52C359.19 557.05 341.32 644.73 341.32 644.73C341.32 644.73 435.06 674.73 492.32 640.17C492.32 640.17 450.2 551.37 468.03 521.77C485.86 492.17 468.33 480.59 468.33 480.59L471.07 426.14L458.17 422.34L450.58 476.23C450.58 476.23 398.21 512.66 359.5 480.79L351.15 422.34L343.41 434.66Z" fill="black"/>
<path id="Vector_37" opacity="0.07" d="M397.55 495.73C393.493 489.252 387.169 484.517 379.811 482.448C372.453 480.379 364.588 481.125 357.75 484.54C370.46 494.09 384.48 496.64 397.55 495.73Z" fill="white"/>
<path id="Vector_38" opacity="0.07" d="M419.06 490.08C423.108 483.603 429.425 478.868 436.777 476.799C444.129 474.729 451.988 475.475 458.82 478.89C446.14 488.4 432.13 490.94 419.06 490.08Z" fill="white"/>
<path id="Vector_39" opacity="0.1" d="M343.41 434.66L351.19 483.42C351.19 483.42 343.19 507.33 351.19 530.86C359.19 554.39 341.32 642.05 341.32 642.05C341.32 642.05 435.06 672.05 492.32 637.5C492.32 637.5 450.2 548.7 468.03 519.1C485.86 489.5 468.33 477.92 468.33 477.92L471.07 423.46L458.17 419.67L450.58 473.56C450.58 473.56 398.21 509.99 359.5 478.11L351.15 419.67L343.41 434.66Z" fill="black"/>
<path id="Vector_40" d="M343.03 434.28L351.19 484.18C351.19 484.18 343.19 508.09 351.19 531.62C359.19 555.15 341.32 642.81 341.32 642.81C341.32 642.81 435.06 672.81 492.32 638.26C492.32 638.26 450.2 549.45 468.03 519.85C485.86 490.25 468.33 478.68 468.33 478.68L471.07 424.22L458.17 420.43L450.58 474.32C450.58 474.32 398.21 510.75 359.5 478.87L351.15 420.43L343.03 434.28Z" fill="#BDC8DD"/>
<path id="Vector_41" d="M381.55 661.4L401.28 658.73C401.28 658.73 424.05 629.51 440.37 651.9C440.37 651.9 447.2 666.32 455.55 668.97C461.26 670.699 467.098 671.97 473.01 672.77L439.23 682.26C439.23 682.26 424.43 690.99 408.87 688.71C399.711 687.309 390.35 688.091 381.55 690.99V661.4Z" fill="#F7C4A7"/>
<path id="Vector_42" opacity="0.1" d="M359.73 537.5C359.73 537.5 395.4 542.81 401.47 533.33Z" fill="black"/>
<path id="Vector_43" opacity="0.1" d="M427.28 531.43C427.28 531.43 434.11 538.26 461.43 533.33Z" fill="black"/>
<path id="Vector_44" opacity="0.1" d="M357.82 425.55C357.82 425.55 384.01 429.35 388.94 427.07Z" fill="black"/>
<path id="Vector_45" opacity="0.1" d="M415.51 425.55C415.51 425.55 441.7 429.35 446.63 427.07Z" fill="black"/>
<path id="Vector_46" opacity="0.1" d="M384.39 658.56C384.39 658.56 391.61 692.56 384.39 693.76C377.17 694.96 366.94 688.16 366.94 687.4C366.94 686.64 371.49 665.01 371.49 665.01L384.39 658.56Z" fill="black"/>
<path id="Vector_47" d="M383.64 658.56C383.64 658.56 390.85 692.56 383.64 693.76C376.43 694.96 366.18 688.16 366.18 687.4C366.18 686.64 370.73 665.01 370.73 665.01L383.64 658.56Z" fill="#313042"/>
<path id="Vector_48" opacity="0.1" d="M348.41 420.57C345.22 427.96 344.09 436.68 347.47 443.98C350.05 449.55 355.1 454.06 356.07 460.12C357.29 467.73 351.65 475.45 353.76 482.86C354.56 485.69 356.43 488.09 358.33 490.34C364.11 497.17 371.79 503.79 380.71 503.26C382.13 489.48 370.21 476.11 374.11 462.82C375.51 458.06 378.79 454.1 380.77 449.56C384.06 442.03 383.59 433.43 382.4 425.3C380.67 413.5 376.29 399.04 364.59 393.52C359.22 390.98 351.59 390.79 349.68 397.69C348.63 401.37 351.08 404.83 351.41 408.43C351.82 413 350.18 416.47 348.41 420.57Z" fill="black"/>
<path id="Vector_49" d="M348.41 419.44C345.22 426.83 344.09 435.54 347.47 442.85C350.05 448.41 355.1 452.93 356.07 458.98C357.29 466.59 351.65 474.31 353.76 481.72C354.56 484.55 356.43 486.96 358.33 489.21C364.11 496.03 371.79 502.65 380.71 502.12C382.13 488.34 370.21 474.97 374.11 461.68C375.51 456.92 378.79 452.96 380.77 448.42C384.06 440.89 383.59 432.29 382.4 424.16C380.67 412.36 376.29 397.9 364.59 392.38C359.22 389.84 351.59 389.66 349.68 396.55C348.63 400.23 351.08 403.69 351.41 407.29C351.82 411.86 350.18 415.33 348.41 419.44Z" fill="#313042"/>
<path id="Vector_50" opacity="0.1" d="M351.38 331.82C351.38 331.82 406.78 324.23 408.3 335.61C409.82 346.99 458.78 365.61 458.78 365.61L446.63 335.61L424.24 298.42C424.24 298.42 383.24 295.42 381.36 298.42C379.48 301.42 357.82 311.32 357.82 311.32L351.38 331.82Z" fill="black"/>
<path id="Vector_51" d="M351.38 331.06C351.38 331.06 406.78 323.47 408.3 334.85C409.82 346.23 458.78 364.85 458.78 364.85L446.63 334.85L424.24 297.66C424.24 297.66 383.24 294.66 381.36 297.66C379.48 300.66 357.82 310.56 357.82 310.56L351.38 331.06Z" fill="#313042"/>
<path id="Vector_52" opacity="0.1" d="M447.82 412.15C450.515 415.377 452.418 419.188 453.38 423.28C454.3 427.2 454.38 431.28 455.21 435.2C457.07 443.55 462.6 450.57 468.36 456.89C470.23 459.18 472.513 461.1 475.09 462.55C477.73 463.85 481.09 464.12 483.53 462.55C481.21 460.64 479.95 457.73 479.12 454.85C477.95 450.822 477.43 446.632 477.58 442.44C477.83 435.44 479.88 428.05 476.97 421.67C475.29 417.98 472.16 415.18 468.97 412.67C466.751 410.874 464.36 409.303 461.83 407.98C457.11 405.63 451.71 404.6 446.5 404.08C439.72 403.39 445.65 409.59 447.82 412.15Z" fill="black"/>
<path id="Vector_53" d="M447.82 411.02C450.518 414.241 452.422 418.049 453.38 422.14C454.3 426.06 454.38 430.14 455.21 434.06C457.07 442.41 462.6 449.43 468.36 455.75C470.23 458.041 472.513 459.96 475.09 461.41C477.73 462.71 481.09 462.98 483.53 461.41C481.21 459.5 479.95 456.6 479.12 453.71C477.95 449.682 477.43 445.492 477.58 441.3C477.83 434.3 479.88 426.91 476.97 420.53C475.29 416.85 472.16 414.05 468.97 411.53C466.754 409.727 464.362 408.153 461.83 406.83C457.11 404.48 451.71 403.45 446.5 402.93C439.72 402.25 445.65 408.45 447.82 411.02Z" fill="#313042"/>
</g>
<defs>
<filter id="filter0_d" x="638.997" y="207.004" width="81.3633" height="97.4713" filterUnits="userSpaceOnUse" color-interpolation-filters="sRGB">
<feFlood flood-opacity="0" result="BackgroundImageFix"/>
<feColorMatrix in="SourceAlpha" type="matrix" values="0 0 0 0 0 0 0 0 0 0 0 0 0 0 0 0 0 0 127 0"/>
<feOffset dy="4"/>
<feGaussianBlur stdDeviation="2"/>
<feColorMatrix type="matrix" values="0 0 0 0 0.94902 0 0 0 0 0.764706 0 0 0 0 0.517647 0 0 0 0.25 0"/>
<feBlend mode="normal" in2="BackgroundImageFix" result="effect1_dropShadow"/>
<feBlend mode="normal" in="SourceGraphic" in2="effect1_dropShadow" result="shape"/>
</filter>
<filter id="filter1_d" x="638.997" y="207.004" width="81.3633" height="73.5848" filterUnits="userSpaceOnUse" color-interpolation-filters="sRGB">
<feFlood flood-opacity="0" result="BackgroundImageFix"/>
<feColorMatrix in="SourceAlpha" type="matrix" values="0 0 0 0 0 0 0 0 0 0 0 0 0 0 0 0 0 0 127 0"/>
<feOffset dy="4"/>
<feGaussianBlur stdDeviation="2"/>
<feColorMatrix type="matrix" values="0 0 0 0 0.94902 0 0 0 0 0.764706 0 0 0 0 0.517647 0 0 0 0.25 0"/>
<feBlend mode="normal" in2="BackgroundImageFix" result="effect1_dropShadow"/>
<feBlend mode="normal" in="SourceGraphic" in2="effect1_dropShadow" result="shape"/>
</filter>
<filter id="filter2_d" x="58.9973" y="281.004" width="77.2415" height="92.4712" filterUnits="userSpaceOnUse" color-interpolation-filters="sRGB">
<feFlood flood-opacity="0" result="BackgroundImageFix"/>
<feColorMatrix in="SourceAlpha" type="matrix" values="0 0 0 0 0 0 0 0 0 0 0 0 0 0 0 0 0 0 127 0"/>
<feOffset dy="4"/>
<feGaussianBlur stdDeviation="2"/>
<feColorMatrix type="matrix" values="0 0 0 0 0.94902 0 0 0 0 0.764706 0 0 0 0 0.517647 0 0 0 0.25 0"/>
<feBlend mode="normal" in2="BackgroundImageFix" result="effect1_dropShadow"/>
<feBlend mode="normal" in="SourceGraphic" in2="effect1_dropShadow" result="shape"/>
</filter>
<filter id="filter3_d" x="438.997" y="0.00363159" width="72.2955" height="86.4713" filterUnits="userSpaceOnUse" color-interpolation-filters="sRGB">
<feFlood flood-opacity="0" result="BackgroundImageFix"/>
<feColorMatrix in="SourceAlpha" type="matrix" values="0 0 0 0 0 0 0 0 0 0 0 0 0 0 0 0 0 0 127 0"/>
<feOffset dy="4"/>
<feGaussianBlur stdDeviation="2"/>
<feColorMatrix type="matrix" values="0 0 0 0 0.94902 0 0 0 0 0.764706 0 0 0 0 0.517647 0 0 0 0.25 0"/>
<feBlend mode="normal" in2="BackgroundImageFix" result="effect1_dropShadow"/>
<feBlend mode="normal" in="SourceGraphic" in2="effect1_dropShadow" result="shape"/>
</filter>
<clipPath id="clip0">
<rect width="778" height="761.81" fill="white"/>
</clipPath>
</defs>
</svg>
