<svg width="472" height="391" viewBox="0 0 472 391" fill="none" xmlns="http://www.w3.org/2000/svg">
<g id="moody">
<path id="Vector" d="M471.984 297.979C447.666 294.172 424.285 290.934 401.841 288.265L410.484 270.979C407.484 269.979 394.484 279.979 394.484 279.979L405.484 229.979C390.484 231.979 383.484 282.979 383.484 282.979L366.484 265.979L374.852 285.226C306.171 278.009 246.905 275.757 197.086 276.274L204.484 261.479C201.484 260.479 188.484 270.479 188.484 270.479L199.484 220.479C184.484 222.479 177.484 273.479 177.484 273.479L160.484 256.479L169.347 276.865C135.221 277.856 101.169 280.599 67.3243 285.081C74.7059 262.085 100.484 239.979 100.484 239.979C80.663 246.145 70.3514 256.191 65.0142 265.504C63.9346 218.26 71.2026 171.196 86.4835 126.479C86.4835 126.479 46.4835 216.479 52.4835 276.479L53.2448 287.137C18.4454 292.566 0.983521 297.979 0.983521 297.979H471.984Z" fill="#3F3D56"/>
<path id="Vector_2" d="M280.984 390.406C280.984 390.406 389.963 362.768 457.484 390.406Z" fill="#3F3D56"/>
<path id="Vector_3" d="M127.167 166.617L136.304 194.899C136.304 194.899 128.037 221.44 131.953 251.027C135.869 280.614 133.694 281.484 133.694 281.484C133.694 281.484 94.5676 279.231 98.4835 290.979C102.399 302.727 140.655 295.842 140.655 295.842C140.655 295.842 148.003 293.864 151.483 272.979C154.964 252.094 163.716 211.867 163.716 211.867L155.486 173.893L127.167 166.617Z" fill="#F2C5B6"/>
<path id="Vector_4" d="M130.213 108.748C130.213 108.748 113.679 114.84 113.679 131.374C113.679 147.908 119.771 170.533 123.687 171.838C127.602 173.143 153.709 190.983 158.495 178.365C163.281 165.747 130.213 108.748 130.213 108.748Z" fill="#BDC8DD"/>
<path id="Vector_5" d="M268.575 304.544L303.383 303.239L329.925 299.323L322.093 325.429L257.698 327.169L268.575 304.544Z" fill="#F2C5B6"/>
<path id="Vector_6" d="M318.612 308.025C318.612 308.025 318.177 298.453 314.261 298.888C310.345 299.323 312.956 295.407 316.436 294.537C319.917 293.667 329.925 289.316 329.925 289.316L369.519 291.926C369.519 291.926 395.19 314.551 384.747 326.734C374.305 338.917 347.329 328.04 347.329 328.04L318.177 328.475C318.177 328.475 308.605 312.811 318.612 308.025Z" fill="#313042"/>
<path id="Vector_7" d="M334.276 274.522L346.893 333.696L373 328.475L358.206 254.507L342.542 246.24L334.276 274.522Z" fill="#F2C5B6"/>
<path id="Vector_8" d="M184.166 267.125C184.166 267.125 111.069 300.193 141.961 333.696C141.961 333.696 141.961 349.36 174.593 346.314C207.226 343.268 270.316 337.612 273.361 339.352C276.407 341.093 285.979 304.979 277.712 303.239C269.445 301.498 259.438 299.323 259.438 299.323C259.438 299.323 268.14 298.018 268.14 290.621C268.14 290.621 292.941 288.88 300.338 273.217C307.734 257.553 314.696 245.805 314.696 245.805L331.665 289.316C331.665 289.316 351.244 253.202 366.038 269.301C366.038 269.301 349.504 165.312 336.886 155.739C324.268 146.167 315.566 143.122 303.818 151.824C292.071 160.526 281.193 182.716 281.193 182.716L184.166 267.125Z" fill="#313042"/>
<path id="Vector_9" d="M358.641 315.857C355.599 318.151 352.694 320.621 349.939 323.253C346.458 326.734 341.672 324.994 341.237 323.253C340.802 321.513 332.97 324.559 332.1 337.177C331.23 349.795 326.009 361.107 339.932 365.023C353.855 368.939 353.42 380.252 353.42 380.252C364.437 385.537 377.08 386.317 388.663 382.427C408.243 375.901 401.281 368.939 401.281 368.939L375.175 325.864C375.175 325.864 368.213 312.811 358.641 315.857Z" fill="#313042"/>
<path id="Vector_10" d="M286.414 100.046C286.414 100.046 328.184 114.405 332.535 117.45C336.886 120.496 356.466 134.854 346.893 142.251C337.321 149.648 329.489 154.434 310.78 148.778C292.071 143.121 271.186 125.717 271.186 125.717L286.414 100.046Z" fill="#F2C5B6"/>
<path id="Vector_11" d="M244.645 80.9019C244.645 80.9019 261.179 77.8562 272.926 84.3828C284.674 90.9093 294.681 103.962 294.681 103.962C294.681 103.962 283.804 127.023 275.972 130.503C268.14 133.984 253.782 116.58 253.782 116.58L244.645 80.9019Z" fill="#BDC8DD"/>
<path id="Vector_12" d="M168.502 68.284C168.502 68.284 168.937 85.253 167.197 86.9934C165.456 88.7337 188.081 140.076 212.882 117.45C237.683 94.8252 218.539 85.6881 218.539 85.6881C218.539 85.6881 209.401 68.7191 209.837 66.9787C210.272 65.2384 169.372 66.9787 169.372 66.9787L168.502 68.284Z" fill="#F2C5B6"/>
<path id="Vector_13" opacity="0.1" d="M168.502 68.284C168.502 68.284 168.937 85.253 167.197 86.9934C165.456 88.7337 188.081 140.076 212.882 117.45C237.683 94.8252 218.539 85.6881 218.539 85.6881C218.539 85.6881 209.401 68.7191 209.837 66.9787C210.272 65.2384 169.372 66.9787 169.372 66.9787L168.502 68.284Z" fill="black"/>
<path id="Vector_14" d="M175.464 100.917C175.464 100.917 191.997 112.229 198.959 109.619C205.921 107.008 214.623 95.6953 215.493 94.8251C216.363 93.9549 260.743 183.151 260.743 183.151C260.743 183.151 254.217 215.783 236.813 225.356C219.409 234.928 219.626 242.542 217.451 249.069C215.275 255.595 187.211 228.401 187.211 228.401L169.372 152.694V106.573L175.464 100.917Z" fill="#BDC8DD"/>
<path id="Vector_15" d="M168.284 80.6844C168.284 80.6844 162.846 79.5967 157.189 84.3828C151.533 89.1689 124.992 107.008 126.297 108.748C127.602 110.489 139.35 135.29 141.961 145.297C144.571 155.304 148.487 156.61 148.487 156.61C148.487 156.61 157.624 163.136 156.319 167.922C155.014 172.708 149.358 237.974 157.189 252.332C165.021 266.69 163.716 279.308 161.54 282.789C159.365 286.27 182.425 272.782 182.425 272.782C182.425 272.782 216.798 244.935 219.409 236.668C221.097 230.985 222.262 225.16 222.89 219.264C222.89 219.264 200.699 131.374 193.738 126.588C186.776 121.802 168.284 80.6844 168.284 80.6844Z" fill="#A9B0BD"/>
<path id="Vector_16" d="M216.084 81.0285C216.084 81.0285 226.806 74.3754 228.981 76.1159C231.157 77.8563 251.606 77.8562 252.041 79.5966C252.476 81.337 253.347 123.107 268.14 133.984C282.934 144.862 273.361 166.617 273.361 166.617L284.239 184.021C284.239 184.021 225.066 241.015 228.981 221.44C229.199 220.352 228.981 220.134 228.981 220.134C228.981 220.134 205.921 121.366 208.966 116.145C212.012 110.924 217.546 87.2465 216.084 81.0285Z" fill="#A9B0BD"/>
<path id="Vector_17" d="M307.299 120.931L248.125 141.381C248.125 141.381 189.387 155.304 198.524 171.403C207.661 187.502 246.385 160.09 246.385 160.09L325.185 151.261C325.185 151.261 356.466 124.847 307.299 120.931Z" fill="#F2C5B6"/>
<path id="Vector_18" d="M191.997 84.3828C209.78 84.3828 224.195 69.9675 224.195 52.1853C224.195 34.4031 209.78 19.9878 191.997 19.9878C174.215 19.9878 159.8 34.4031 159.8 52.1853C159.8 69.9675 174.215 84.3828 191.997 84.3828Z" fill="#F2C5B6"/>
<path id="Vector_19" d="M166.356 20.1865L160.401 18.0208C160.401 18.0208 172.854 5.56764 190.18 6.65057L185.307 1.77756C185.307 1.77756 197.219 -2.55391 208.047 8.81628C213.74 14.7934 220.326 21.8191 224.432 29.7335H230.81L228.148 35.0576L237.465 40.3818L227.902 39.4254C228.808 44.022 228.496 48.7756 226.998 53.2144L224.832 59.1702C224.832 59.1702 216.169 41.8441 216.169 39.6783V45.0928C216.169 45.0928 210.213 40.2198 210.213 36.9712L206.964 40.7613L205.34 34.8054L185.307 40.7613L188.555 35.8883L176.102 37.5127L180.975 31.5568C180.975 31.5568 166.898 38.5955 166.356 44.5514C165.815 50.5072 158.776 58.0874 158.776 58.0874L155.528 52.673C155.528 52.673 150.655 28.3081 166.356 20.1865Z" fill="#E6DFC8"/>
</g>
</svg>
