<svg xmlns="http://www.w3.org/2000/svg" width="59" height="51.75" viewBox="0 0 59 51.75">
  <path id="Icon_awesome-quote-right" data-name="Icon awesome-quote-right" d="M52.563,2.25h-14.5a5.439,5.439,0,0,0-5.437,5.438v14.5a5.439,5.439,0,0,0,5.438,5.438h9.063v7.25a7.257,7.257,0,0,1-7.25,7.25h-.906a2.712,2.712,0,0,0-2.719,2.719v5.438A2.712,2.712,0,0,0,38.969,53h.906A18.12,18.12,0,0,0,58,34.875V7.688A5.439,5.439,0,0,0,52.563,2.25Zm-32.625,0H5.438A5.439,5.439,0,0,0,0,7.688v14.5a5.439,5.439,0,0,0,5.438,5.438H14.5v7.25a7.257,7.257,0,0,1-7.25,7.25H6.344a2.712,2.712,0,0,0-2.719,2.719v5.438A2.712,2.712,0,0,0,6.344,53H7.25A18.12,18.12,0,0,0,25.375,34.875V7.688A5.439,5.439,0,0,0,19.938,2.25Z" transform="translate(0.5 -1.75)" fill="none" stroke="rgba(128,128,128,0.8)" stroke-width="1"/>
</svg>
