<svg width="855" height="686" viewBox="0 0 855 686" fill="none" xmlns="http://www.w3.org/2000/svg">
<g id="run 1" clip-path="url(#clip0)">
<path id="Vector" d="M431.669 683.248C637.488 683.248 804.338 663.269 804.338 638.624C804.338 613.979 637.488 594 431.669 594C225.85 594 59 613.979 59 638.624C59 663.269 225.85 683.248 431.669 683.248Z" fill="#CFD5E1"/>
<path id="Vector_2" d="M750.178 621.328C749.687 620.526 738.118 601.208 734.107 561.094C730.428 524.292 732.794 462.258 764.965 375.727C825.913 211.799 750.919 79.5329 750.153 78.2154L753.853 76.069C754.047 76.403 773.398 110.126 784.83 163.824C799.934 235.016 794.434 309.039 768.974 377.218C708.131 540.866 753.364 618.336 753.828 619.1L750.178 621.328Z" fill="#CFD5E1"/>
<path id="Vector_3" d="M726.346 68.5899C741.697 68.5899 754.141 56.1457 754.141 40.795C754.141 25.4442 741.697 13 726.346 13C710.995 13 698.551 25.4442 698.551 40.795C698.551 56.1457 710.995 68.5899 726.346 68.5899Z" fill="#CFD5E1"/>
<path id="Vector_4" d="M814.007 171.217C829.358 171.217 841.802 158.773 841.802 143.422C841.802 128.072 829.358 115.627 814.007 115.627C798.656 115.627 786.212 128.072 786.212 143.422C786.212 158.773 798.656 171.217 814.007 171.217Z" fill="#CFD5E1"/>
<path id="Vector_5" d="M754.141 239.636C769.492 239.636 781.936 227.192 781.936 211.841C781.936 196.49 769.492 184.046 754.141 184.046C738.79 184.046 726.346 196.49 726.346 211.841C726.346 227.192 738.79 239.636 754.141 239.636Z" fill="#98E6B9"/>
<path id="Vector_6" d="M826.835 297.364C842.186 297.364 854.63 284.919 854.63 269.569C854.63 254.218 842.186 241.774 826.835 241.774C811.485 241.774 799.04 254.218 799.04 269.569C799.04 284.919 811.485 297.364 826.835 297.364Z" fill="#98E6B9"/>
<path id="Vector_7" d="M732.76 387.163C748.111 387.163 760.555 374.719 760.555 359.368C760.555 344.017 748.111 331.573 732.76 331.573C717.409 331.573 704.965 344.017 704.965 359.368C704.965 374.719 717.409 387.163 732.76 387.163Z" fill="#CFD5E1"/>
<path id="Vector_8" d="M766.969 622.351C766.969 622.351 739.174 553.932 822.559 502.619L766.969 622.351Z" fill="#CFD5E1"/>
<path id="Vector_9" d="M734.786 611.11C734.786 611.11 722.136 538.353 624.229 538.976L734.786 611.11Z" fill="#CFD5E1"/>
<path id="Vector_10" d="M136.5 414.5C159.144 414.5 177.5 396.144 177.5 373.5C177.5 350.856 159.144 332.5 136.5 332.5C113.856 332.5 95.5 350.856 95.5 373.5C95.5 396.144 113.856 414.5 136.5 414.5Z" fill="#F2C5B6"/>
<path id="Vector_11" d="M143.928 322.504C136.087 320.579 127.656 320.257 120.06 322.993C112.236 325.811 105.797 331.702 101.06 338.536C96.3235 345.371 93.1424 353.149 90.2928 360.961C88.6308 365.22 87.3444 369.617 86.4483 374.1C85.4265 380.077 85.6232 386.198 87.0266 392.097C88.43 397.996 91.0113 403.55 94.6152 408.426C93.4146 405.26 96.4375 401.809 99.753 401.123C103.069 400.438 106.446 401.597 109.716 402.476C115.477 404.021 121.433 404.722 127.396 404.554C129.68 404.489 132.075 404.259 133.974 402.989C139.926 399.009 136.776 388.726 141.728 383.555C143.495 381.71 146.017 380.847 148.295 379.69C156.496 375.523 161.9 367.114 164.451 358.277C166.05 352.738 170.018 336.827 166.636 331.679C163.579 327.026 149.12 323.779 143.928 322.504Z" fill="#313042"/>
<path id="Vector_12" d="M248.066 328.291C245.038 327.227 241.829 326.772 238.624 326.951C235.419 327.129 232.281 327.939 229.389 329.332C218.694 334.348 199.781 346.499 200.5 369.5C201.5 401.5 212.5 422.5 212.5 422.5L210.5 487.5L200.5 605.5C200.5 605.5 151.5 645.5 170.5 655.5C189.5 665.5 221.5 607.5 221.5 607.5L246.5 540.5L255.5 475.5C255.5 475.5 270.5 407.5 255.5 377.5C255.5 377.5 272.828 337.33 248.066 328.291Z" fill="#F2C5B6"/>
<path id="Vector_13" d="M367.5 431.5C367.5 431.5 350.5 503.5 410.5 523.5C470.5 543.5 549.5 577.5 549.5 577.5L559.5 594.5L582.5 563.5L578.5 539.5L539.5 528.5C539.5 528.5 466.5 472.5 434.5 468.5L438.5 431.5H367.5Z" fill="#F2C5B6"/>
<path id="Vector_14" d="M527.307 373.717L548.5 408.5C548.5 408.5 618.5 448.5 636.5 475.5C654.5 502.5 697.5 531.5 697.5 531.5L678.5 576.5C678.5 576.5 624.5 513.5 601.5 507.5C578.5 501.5 476.5 419.5 476.5 419.5L527.307 373.717Z" fill="#F2C5B6"/>
<path id="Vector_15" d="M338.568 251.819C330.763 253.045 322.951 254.273 315.239 255.993C297.321 259.988 280.091 266.609 263.272 273.967C239.734 284.266 216.873 296.045 194.825 309.234C188.879 312.63 183.205 316.482 177.856 320.757C174.296 323.721 170.945 327.12 169.035 331.341C167.823 334.288 167.039 337.393 166.706 340.562C165.155 351.682 165.228 363.157 168.24 373.972C171.253 384.788 177.364 394.927 186.359 401.646C188.739 403.482 191.382 404.947 194.2 405.994C197.99 407.15 201.914 407.808 205.874 407.951C218.491 408.954 231.672 409.874 243.348 404.987C250.768 401.882 257.049 396.633 263.876 392.38C292.789 374.372 329.522 375.139 361.137 362.46C364.21 361.227 367.34 359.79 369.49 357.271C371.117 355.112 372.343 352.677 373.11 350.084C377.107 339.021 381.104 327.959 385.101 316.896C387.633 309.887 390.167 302.873 392.293 295.729C394.517 288.257 396.289 280.66 398.059 273.068C399.583 266.534 401.152 259.692 400.566 252.938C399.702 242.976 397.4 242.571 388.25 244.013C371.691 246.623 355.13 249.225 338.568 251.819Z" fill="#98E6B9"/>
<path id="Vector_16" d="M218.066 328.291C215.038 327.227 211.829 326.772 208.624 326.951C205.419 327.129 202.281 327.939 199.389 329.332C188.694 334.348 169.781 346.499 170.5 369.5C171.5 401.5 182.5 422.5 182.5 422.5L180.5 487.5L170.5 605.5C170.5 605.5 121.5 645.5 140.5 655.5C159.5 665.5 191.5 607.5 191.5 607.5L216.5 540.5L225.5 475.5C225.5 475.5 240.5 407.5 225.5 377.5C225.5 377.5 242.828 337.33 218.066 328.291Z" fill="#F2C5B6"/>
<path id="Vector_17" d="M391.66 243.544C391.66 243.544 480.5 235.5 476.5 290.5C472.5 345.5 442.5 440.5 442.5 440.5L365.5 444.5C365.5 444.5 355.5 379.5 369.5 357.5L391.66 243.544Z" fill="#313042"/>
<path id="Vector_18" d="M453.5 261.5C453.5 261.5 475.5 275.5 487.5 303.5C499.5 331.5 535.5 386.5 535.5 386.5L476.5 428.5L432.5 383.5L453.5 261.5Z" fill="#313042"/>
<path id="Vector_19" d="M559.5 573.5C559.5 573.5 540.5 580.5 553.5 594.5C561.485 603.187 568.217 612.949 573.5 623.5C573.5 623.5 569.5 649.5 586.5 648.5C603.5 647.5 610.5 612.5 606.5 600.5C602.5 588.5 597.5 531.5 597.5 531.5C597.5 531.5 562.5 534.5 563.5 539.5C564.5 544.5 569.5 569.5 559.5 573.5Z" fill="#313042"/>
<path id="Vector_20" d="M678.5 553.5C678.5 553.5 660.5 562.5 665.5 570.5C670.5 578.5 686.5 601.5 686.5 601.5C686.5 601.5 680.5 631.5 697.5 634.5C714.5 637.5 724.5 598.5 721.5 590.5C718.5 582.5 718.5 551.5 718.5 551.5C718.5 551.5 719.5 520.5 709.5 520.5C699.5 520.5 682.5 524.5 682.5 524.5C682.5 524.5 686.5 552.5 678.5 553.5Z" fill="#313042"/>
<path id="Vector_21" d="M125 598.871H96V649.483H125V598.871Z" fill="#98E6B9"/>
</g>
<defs>
<clipPath id="clip0">
<rect width="854.63" height="686" fill="white"/>
</clipPath>
</defs>
</svg>
