<svg width="705" height="635" viewBox="0 0 705 635" fill="none" xmlns="http://www.w3.org/2000/svg">
<g id="tasks" clip-path="url(#clip0)">
<path id="Vector" d="M437.632 369H179.632C170.883 368.99 162.495 365.51 156.309 359.324C150.122 353.137 146.642 344.749 146.632 336V33C146.642 24.2509 150.122 15.863 156.309 9.67639C162.495 3.48983 170.883 0.00988299 179.632 0H419.659L470.632 40.6289V336C470.623 344.749 467.143 353.137 460.956 359.324C454.769 365.51 446.382 368.99 437.632 369V369Z" fill="#E6E6E6"/>
<path id="Vector_2" d="M179.632 9.5C173.402 9.50702 167.429 11.9852 163.023 16.3907C158.617 20.7963 156.139 26.7696 156.132 33V336C156.139 342.23 158.617 348.204 163.023 352.609C167.429 357.015 173.402 359.493 179.632 359.5H437.632C443.863 359.493 449.836 357.015 454.242 352.609C458.647 348.204 461.125 342.23 461.132 336V45.2056L416.336 9.5H179.632Z" fill="white"/>
<path id="Vector_3" d="M387.451 97.6043H269.988C269.266 97.6043 268.551 97.4621 267.885 97.186C267.218 96.9098 266.612 96.505 266.102 95.9947C265.591 95.4844 265.187 94.8786 264.911 94.2119C264.634 93.5452 264.492 92.8306 264.492 92.1089C264.492 91.3872 264.634 90.6726 264.911 90.0059C265.187 89.3392 265.591 88.7334 266.102 88.2231C266.612 87.7128 267.218 87.308 267.885 87.0318C268.551 86.7556 269.266 86.6135 269.988 86.6135H387.451C388.173 86.6135 388.888 86.7556 389.554 87.0318C390.221 87.308 390.827 87.7128 391.337 88.2231C391.848 88.7334 392.252 89.3392 392.528 90.0059C392.805 90.6726 392.947 91.3872 392.947 92.1089C392.947 92.8306 392.805 93.5452 392.528 94.2119C392.252 94.8786 391.848 95.4844 391.337 95.9947C390.827 96.505 390.221 96.9098 389.554 97.186C388.888 97.4621 388.173 97.6043 387.451 97.6043V97.6043Z" fill="#CCCCCC"/>
<path id="Vector_4" d="M410.12 116.151H269.988C268.53 116.151 267.132 115.572 266.102 114.542C265.071 113.511 264.492 112.113 264.492 110.656C264.492 109.198 265.071 107.801 266.102 106.77C267.132 105.739 268.53 105.16 269.988 105.16H410.12C411.577 105.16 412.975 105.739 414.006 106.77C415.036 107.801 415.615 109.198 415.615 110.656C415.615 112.113 415.036 113.511 414.006 114.542C412.975 115.572 411.577 116.151 410.12 116.151Z" fill="#CCCCCC"/>
<path id="Vector_5" d="M387.451 180.722H269.988C268.53 180.722 267.132 180.143 266.102 179.112C265.071 178.082 264.492 176.684 264.492 175.227C264.492 173.769 265.071 172.371 266.102 171.341C267.132 170.31 268.53 169.731 269.988 169.731H387.451C388.909 169.731 390.307 170.31 391.337 171.341C392.368 172.371 392.947 173.769 392.947 175.227C392.947 176.684 392.368 178.082 391.337 179.112C390.307 180.143 388.909 180.722 387.451 180.722Z" fill="#CCCCCC"/>
<path id="Vector_6" d="M410.12 199.269H269.988C268.53 199.269 267.132 198.69 266.102 197.659C265.071 196.629 264.492 195.231 264.492 193.773C264.492 192.316 265.071 190.918 266.102 189.888C267.132 188.857 268.53 188.278 269.988 188.278H410.12C411.577 188.278 412.975 188.857 414.006 189.888C415.036 190.918 415.615 192.316 415.615 193.773C415.615 195.231 415.036 196.629 414.006 197.659C412.975 198.69 411.577 199.269 410.12 199.269Z" fill="#CCCCCC"/>
<path id="Vector_7" d="M387.451 263.84H269.988C268.53 263.84 267.132 263.261 266.102 262.23C265.071 261.199 264.492 259.802 264.492 258.344C264.492 256.887 265.071 255.489 266.102 254.458C267.132 253.428 268.53 252.849 269.988 252.849H387.451C388.909 252.849 390.307 253.428 391.337 254.458C392.368 255.489 392.947 256.887 392.947 258.344C392.947 259.802 392.368 261.199 391.337 262.23C390.307 263.261 388.909 263.84 387.451 263.84Z" fill="#CCCCCC"/>
<path id="Vector_8" d="M410.12 282.387H269.988C268.53 282.387 267.132 281.808 266.102 280.777C265.071 279.746 264.492 278.349 264.492 276.891C264.492 275.434 265.071 274.036 266.102 273.005C267.132 271.975 268.53 271.396 269.988 271.396H410.12C411.577 271.396 412.975 271.975 414.006 273.005C415.036 274.036 415.615 275.434 415.615 276.891C415.615 278.349 415.036 279.746 414.006 280.777C412.975 281.808 411.577 282.387 410.12 282.387V282.387Z" fill="#CCCCCC"/>
<path id="Ellipse 44" d="M221.073 120.805C231.8 120.805 240.496 112.109 240.496 101.382C240.496 90.6552 231.8 81.9592 221.073 81.9592C210.346 81.9592 201.65 90.6552 201.65 101.382C201.65 112.109 210.346 120.805 221.073 120.805Z" fill="#98E6B9"/>
<path id="Path 395" d="M219.148 108.792C218.711 108.792 218.286 108.651 217.936 108.389L217.914 108.373L213.35 104.881C212.923 104.553 212.644 104.07 212.574 103.537C212.504 103.004 212.648 102.465 212.975 102.038C213.303 101.611 213.786 101.332 214.319 101.261C214.852 101.19 215.391 101.334 215.818 101.661L218.775 103.928L225.761 94.8135C225.923 94.6021 226.125 94.4248 226.356 94.2915C226.587 94.1583 226.841 94.0718 227.105 94.0369C227.369 94.002 227.637 94.0195 227.895 94.0883C228.152 94.1571 228.393 94.2759 228.604 94.4379L228.605 94.4384L228.562 94.4986L228.606 94.4384C229.032 94.7661 229.311 95.2495 229.382 95.7825C229.452 96.3156 229.308 96.8548 228.981 97.2818L220.763 107.998C220.573 108.245 220.329 108.445 220.049 108.582C219.769 108.719 219.461 108.79 219.15 108.789L219.148 108.792Z" fill="white"/>
<path id="Ellipse 44_2" d="M223.073 203.923C233.8 203.923 242.496 195.227 242.496 184.5C242.496 173.773 233.8 165.077 223.073 165.077C212.346 165.077 203.65 173.773 203.65 184.5C203.65 195.227 212.346 203.923 223.073 203.923Z" fill="#CCCCCC"/>
<path id="Ellipse 44_3" d="M221.073 287.041C231.8 287.041 240.496 278.345 240.496 267.618C240.496 256.891 231.8 248.195 221.073 248.195C210.346 248.195 201.65 256.891 201.65 267.618C201.65 278.345 210.346 287.041 221.073 287.041Z" fill="#CCCCCC"/>
<path id="Vector_9" d="M469.64 41.9364H429.711C426.796 41.9364 424.001 40.7785 421.94 38.7173C419.878 36.6562 418.72 33.8606 418.72 30.9457V1.4547C418.72 1.32558 418.757 1.19907 418.825 1.08969C418.894 0.980311 418.992 0.892482 419.108 0.836273C419.225 0.780064 419.354 0.757751 419.483 0.771896C419.611 0.786041 419.733 0.836069 419.834 0.916244L470.067 40.7111C470.178 40.7996 470.26 40.9208 470.3 41.0577C470.34 41.1947 470.336 41.3406 470.289 41.4753C470.242 41.61 470.154 41.7268 470.038 41.8094C469.922 41.8921 469.783 41.9364 469.64 41.9364Z" fill="#E6E6E6"/>
<path id="Vector_10" d="M199.348 425.772L46.702 457.947C42.2907 458.872 37.6928 458.009 33.917 455.548C30.1412 453.087 27.4958 449.228 26.5613 444.819L0.367455 320.55C-0.557181 316.138 0.305744 311.54 2.76691 307.765C5.22808 303.989 9.0865 301.343 13.4957 300.409L166.142 268.234C170.553 267.309 175.151 268.172 178.927 270.633C182.702 273.094 185.348 276.953 186.282 281.362L212.476 405.631C213.401 410.043 212.538 414.641 210.077 418.416C207.615 422.192 203.757 424.838 199.348 425.772Z" fill="white"/>
<path id="Vector_11" d="M199.348 425.772L46.702 457.947C42.2907 458.872 37.6928 458.009 33.917 455.548C30.1412 453.087 27.4958 449.228 26.5613 444.819L0.367455 320.55C-0.557181 316.138 0.305744 311.54 2.76691 307.765C5.22808 303.989 9.0865 301.343 13.4957 300.409L166.142 268.234C170.553 267.309 175.151 268.172 178.927 270.633C182.702 273.094 185.348 276.953 186.282 281.362L212.476 405.631C213.401 410.043 212.538 414.641 210.077 418.416C207.615 422.192 203.757 424.838 199.348 425.772ZM13.9082 302.366C10.0177 303.191 6.61328 305.525 4.44166 308.856C2.27004 312.188 1.50861 316.245 2.32444 320.137L28.5183 444.407C29.3429 448.297 31.677 451.701 35.0086 453.873C38.3402 456.045 42.3972 456.806 46.2895 455.99L198.935 423.815C202.826 422.991 206.23 420.656 208.402 417.325C210.574 413.993 211.335 409.936 210.519 406.044L184.325 281.775C183.501 277.884 181.167 274.48 177.835 272.308C174.503 270.136 170.446 269.375 166.554 270.191L13.9082 302.366Z" fill="#3F3D56"/>
<path id="Path 411" d="M156.657 309.209L79.6189 325.447C78.9448 325.604 78.2363 325.498 77.6369 325.153C77.0374 324.807 76.5916 324.246 76.3896 323.584C76.2972 323.239 76.2761 322.879 76.3277 322.525C76.3792 322.171 76.5022 321.832 76.6892 321.527C76.8762 321.223 77.1233 320.96 77.4154 320.754C77.7075 320.548 78.0385 320.404 78.3882 320.33L156.809 303.801C159.87 305.526 158.903 308.736 156.656 309.209L156.657 309.209Z" fill="#CCCCCC"/>
<path id="Path 412" d="M159.506 322.722L82.4672 338.96C81.793 339.117 81.0846 339.011 80.4852 338.666C79.8857 338.32 79.4399 337.759 79.2379 337.097C79.1455 336.752 79.1244 336.392 79.1759 336.038C79.2275 335.684 79.3505 335.345 79.5375 335.04C79.7245 334.736 79.9716 334.473 80.2637 334.267C80.5558 334.061 80.8868 333.917 81.2365 333.843L159.657 317.314C162.719 319.039 161.751 322.249 159.505 322.722L159.506 322.722Z" fill="#CCCCCC"/>
<path id="Path 413" d="M67.435 350.165L43.9237 355.12C43.1559 355.281 42.3555 355.131 41.6982 354.703C41.041 354.275 40.5806 353.603 40.418 352.835L34.5698 325.09C34.4087 324.322 34.5589 323.522 34.9873 322.865C35.4157 322.207 36.0874 321.747 36.8549 321.584L60.3662 316.629C61.134 316.468 61.9343 316.618 62.5914 317.046C63.2486 317.475 63.7091 318.146 63.8719 318.914L69.7201 346.659C69.8812 347.427 69.731 348.227 69.3026 348.884C68.8742 349.542 68.2025 350.002 67.435 350.165V350.165Z" fill="#CCCCCC"/>
<path id="Path 414" d="M165.113 350.437L47.5388 375.22C46.8646 375.376 46.1562 375.271 45.5567 374.925C44.9573 374.579 44.5115 374.019 44.3095 373.357C44.2171 373.012 44.196 372.651 44.2475 372.298C44.299 371.944 44.422 371.605 44.609 371.3C44.7961 370.996 45.0432 370.732 45.3353 370.527C45.6274 370.321 45.9584 370.177 46.3081 370.103L165.266 345.029C168.328 346.754 167.36 349.964 165.113 350.437V350.437Z" fill="#CCCCCC"/>
<path id="Path 415" d="M167.963 363.954L50.3879 388.737C49.7138 388.893 49.0054 388.788 48.4059 388.442C47.8064 388.096 47.3606 387.536 47.1586 386.874C47.0662 386.529 47.0451 386.168 47.0967 385.815C47.1482 385.461 47.2712 385.122 47.4582 384.817C47.6452 384.513 47.8923 384.249 48.1844 384.044C48.4765 383.838 48.8075 383.694 49.1572 383.62L168.115 358.546C171.177 360.271 170.209 363.481 167.963 363.954Z" fill="#CCCCCC"/>
<path id="Path 416" d="M170.81 377.462L53.2352 402.245C52.561 402.402 51.8526 402.296 51.2531 401.95C50.6537 401.605 50.2079 401.044 50.0059 400.382C49.9135 400.037 49.8924 399.676 49.9439 399.323C49.9955 398.969 50.1185 398.63 50.3055 398.325C50.4925 398.021 50.7396 397.758 51.0317 397.552C51.3238 397.346 51.6548 397.202 52.0045 397.128L170.962 372.054C174.024 373.779 173.056 376.989 170.81 377.462V377.462Z" fill="#CCCCCC"/>
<path id="Path 417" d="M173.659 390.978L56.0841 415.761C55.41 415.918 54.7015 415.812 54.1021 415.466C53.5026 415.121 53.0568 414.56 52.8548 413.898C52.7624 413.553 52.7414 413.192 52.7929 412.839C52.8444 412.485 52.9674 412.146 53.1544 411.841C53.3414 411.537 53.5885 411.274 53.8807 411.068C54.1728 410.862 54.5038 410.718 54.8534 410.644L173.811 385.57C176.873 387.295 175.905 390.505 173.659 390.978V390.978Z" fill="#CCCCCC"/>
<path id="Path 418" d="M176.506 404.488L58.9316 429.27C58.2575 429.427 57.5491 429.321 56.9496 428.976C56.3501 428.63 55.9043 428.069 55.7023 427.407C55.61 427.062 55.5889 426.702 55.6404 426.348C55.6919 425.994 55.8149 425.655 56.0019 425.35C56.1889 425.046 56.436 424.783 56.7282 424.577C57.0203 424.371 57.3512 424.227 57.7009 424.153L176.659 399.079C179.721 400.805 178.753 404.014 176.506 404.488V404.488Z" fill="#CCCCCC"/>
<path id="Vector_12" d="M197.261 342.621C196.994 343.105 196.765 343.61 196.578 344.131L148.444 356.075L140.071 347.413L125.346 358.341L138.679 375.117C139.756 376.472 141.244 377.442 142.919 377.879C144.594 378.317 146.365 378.2 147.968 377.545L200.197 356.203C201.914 357.466 203.975 358.177 206.105 358.241C208.236 358.305 210.336 357.719 212.125 356.56C213.915 355.402 215.309 353.726 216.122 351.756C216.936 349.786 217.131 347.614 216.68 345.531C216.23 343.447 215.156 341.55 213.601 340.092C212.046 338.634 210.084 337.684 207.976 337.368C205.868 337.052 203.713 337.385 201.799 338.324C199.885 339.262 198.302 340.761 197.261 342.621L197.261 342.621Z" fill="#F2C5B6"/>
<path id="Vector_13" d="M32.9642 448.913C34.4648 448.45 35.8455 447.663 37.0091 446.608C38.1727 445.553 39.0909 444.256 39.699 442.808C40.3071 441.36 40.5904 439.797 40.5287 438.227C40.4671 436.658 40.0622 435.121 39.3424 433.725L72.4667 341.658L49.463 337.581L24.1364 429.362C21.8715 430.727 20.1859 432.875 19.399 435.399C18.612 437.924 18.7784 440.649 19.8665 443.059C20.9547 445.469 22.889 447.396 25.303 448.475C27.717 449.554 30.4429 449.71 32.9642 448.913V448.913Z" fill="#F2C5B6"/>
<path id="Vector_14" d="M68.2598 358.001L45.5473 349.284C44.9011 349.036 44.3159 348.652 43.8316 348.157C43.3474 347.663 42.9754 347.07 42.741 346.418C42.5066 345.767 42.4154 345.073 42.4734 344.383C42.5315 343.693 42.7376 343.024 43.0776 342.421L54.9926 321.296C56.2805 317.997 58.824 315.343 62.0652 313.917C65.3065 312.49 68.9811 312.407 72.2836 313.686C75.586 314.964 78.2467 317.5 79.6824 320.737C81.1181 323.975 81.2117 327.649 79.9426 330.955L74.687 354.553C74.5363 355.228 74.2418 355.863 73.8235 356.415C73.4052 356.966 72.873 357.421 72.2631 357.749C71.6531 358.076 70.9798 358.268 70.289 358.311C69.5982 358.355 68.9061 358.249 68.2598 358.001V358.001Z" fill="#98E6B9"/>
<path id="Vector_15" d="M119.525 621.766L131.785 621.765L137.617 574.477L119.523 574.478L119.525 621.766Z" fill="#F2C5B6"/>
<path id="Vector_16" d="M116.398 617.763L140.541 617.762H140.542C142.563 617.762 144.564 618.16 146.43 618.933C148.297 619.707 149.993 620.84 151.422 622.269C152.851 623.697 153.984 625.394 154.758 627.26C155.531 629.127 155.929 631.128 155.929 633.149V633.649L116.398 633.65L116.398 617.763Z" fill="#313042"/>
<path id="Vector_17" d="M50.525 621.766L62.785 621.765L68.617 574.477L50.523 574.478L50.525 621.766Z" fill="#F2C5B6"/>
<path id="Vector_18" d="M47.3975 617.763L71.5413 617.762H71.5423C73.5629 617.762 75.5637 618.16 77.4305 618.933C79.2973 619.707 80.9935 620.84 82.4222 622.269C83.851 623.697 84.9844 625.394 85.7576 627.26C86.5308 629.127 86.9288 631.128 86.9288 633.149V633.649L47.3983 633.65L47.3975 617.763Z" fill="#313042"/>
<path id="Vector_19" d="M63.3773 602.733H47.8626C47.2537 602.733 46.6511 602.609 46.0914 602.37C45.5316 602.13 45.0263 601.779 44.6061 601.338C44.1859 600.898 43.8595 600.376 43.6466 599.806C43.4338 599.235 43.3389 598.627 43.3678 598.019L50.7372 439.687L51.2015 439.674L126.121 437.721L140.781 596.144C140.838 596.738 140.775 597.337 140.598 597.907C140.421 598.476 140.132 599.005 139.748 599.462C139.365 599.919 138.894 600.295 138.364 600.569C137.834 600.842 137.255 601.008 136.66 601.055L119.234 602.449C118.139 602.536 117.05 602.22 116.172 601.56C115.294 600.9 114.688 599.943 114.467 598.867L92.1766 486.09C92.1158 485.748 91.9341 485.438 91.6646 485.218C91.395 484.998 91.0555 484.882 90.7076 484.891H90.7015C90.3524 484.883 90.0123 485.002 89.743 485.224C89.4738 485.446 89.2936 485.758 89.2352 486.102L67.7926 599.102C67.5895 600.124 67.0387 601.045 66.2337 601.707C65.4288 602.368 64.4194 602.731 63.3773 602.733V602.733Z" fill="#313042"/>
<path id="Vector_20" d="M91.797 298.475C105.362 298.475 116.358 287.479 116.358 273.914C116.358 260.349 105.362 249.353 91.797 249.353C78.2323 249.353 67.236 260.349 67.236 273.914C67.236 287.479 78.2323 298.475 91.797 298.475Z" fill="#F2C5B6"/>
<path id="Vector_21" d="M83.5614 458.242C71.8551 458.242 59.8312 455.165 49.8634 446.067C49.3329 445.586 48.9234 444.987 48.6681 444.318C48.4128 443.649 48.3188 442.929 48.3939 442.217C49.4608 432.631 54.6361 383.136 51.7215 350.074C51.1528 343.898 52.0271 337.675 54.2755 331.895C56.5238 326.115 60.0847 320.937 64.6771 316.769C69.1891 312.611 74.6058 309.558 80.4997 307.851C86.3936 306.144 92.6035 305.831 98.6393 306.935H98.6395C98.9454 306.99 99.2511 307.047 99.5573 307.106C119.221 310.912 132.883 329.11 131.337 349.437C129.081 379.097 127.059 419.216 130.234 441.905C130.366 442.833 130.204 443.779 129.771 444.611C129.338 445.442 128.656 446.117 127.82 446.542C120.595 450.192 102.494 458.242 83.5614 458.242Z" fill="#98E6B9"/>
<path id="Vector_22" d="M115.611 359.768C115.034 359.385 114.548 358.882 114.183 358.293C113.819 357.704 113.587 357.044 113.501 356.357L110.509 332.367C109.559 328.956 110.001 325.306 111.737 322.22C113.473 319.133 116.363 316.861 119.772 315.902C123.181 314.943 126.831 315.374 129.923 317.102C133.014 318.83 135.294 321.713 136.263 325.119L146.119 347.28C146.4 347.913 146.542 348.598 146.534 349.29C146.527 349.983 146.37 350.665 146.075 351.291C145.78 351.917 145.353 352.472 144.824 352.919C144.295 353.365 143.676 353.692 143.009 353.878L119.572 360.4C118.905 360.586 118.206 360.626 117.522 360.517C116.839 360.408 116.187 360.152 115.611 359.768V359.768Z" fill="#98E6B9"/>
<path id="Vector_23" d="M83.2229 298.128C80.8982 298.171 78.5879 297.753 76.4257 296.899C75.4743 296.532 74.4867 296.231 73.537 295.864C65.1504 292.624 59.6258 283.692 59.428 274.703C59.2301 265.715 63.885 256.99 70.7971 251.241C77.7092 245.491 86.6621 242.539 95.627 241.857C105.284 241.122 116.157 243.57 121.553 251.612C122.99 253.753 123.994 256.35 123.143 258.935C122.888 259.715 122.433 260.414 121.823 260.963C119.413 263.107 117.01 261.495 114.554 261.352C111.177 261.157 108.145 263.89 107.055 267.091C105.965 270.293 106.444 273.818 107.325 277.084C107.995 279.049 108.418 281.09 108.583 283.16C108.654 284.197 108.459 285.236 108.016 286.178C107.573 287.119 106.897 287.931 106.052 288.538C103.942 289.814 101.171 289.075 99.06 287.802C96.9488 286.529 95.1246 284.758 92.8442 283.821C90.5637 282.884 87.5 283.092 86.1727 285.17C85.7509 285.926 85.4654 286.75 85.3293 287.605C84.1393 293.026 84.4128 292.707 83.2229 298.128V298.128Z" fill="#313042"/>
<path id="Vector_24" d="M191.668 635H1.66785C1.40263 635 1.14828 634.895 0.960739 634.707C0.773203 634.52 0.667847 634.265 0.667847 634C0.667847 633.735 0.773203 633.48 0.960739 633.293C1.14828 633.105 1.40263 633 1.66785 633H191.668C191.933 633 192.187 633.105 192.375 633.293C192.562 633.48 192.668 633.735 192.668 634C192.668 634.265 192.562 634.52 192.375 634.707C192.187 634.895 191.933 635 191.668 635Z" fill="#313042"/>
<path id="Vector_25" d="M678.012 428.629L541.955 504.947C538.021 507.147 533.376 507.698 529.037 506.477C524.698 505.257 521.021 502.365 518.811 498.437L456.681 387.672C454.48 383.738 453.93 379.093 455.151 374.754C456.371 370.415 459.263 366.738 463.191 364.528L599.249 288.211C603.182 286.011 607.828 285.46 612.167 286.681C616.505 287.901 620.183 290.793 622.392 294.721L684.522 405.486C686.723 409.419 687.273 414.065 686.053 418.404C684.832 422.743 681.941 426.42 678.012 428.629V428.629Z" fill="white"/>
<path id="Vector_26" d="M678.012 428.629L541.955 504.947C538.021 507.147 533.376 507.698 529.037 506.477C524.698 505.257 521.021 502.365 518.811 498.437L456.681 387.672C454.48 383.738 453.93 379.093 455.151 374.754C456.371 370.415 459.263 366.738 463.191 364.528L599.249 288.211C603.182 286.011 607.828 285.46 612.167 286.681C616.505 287.901 620.183 290.793 622.392 294.721L684.522 405.486C686.723 409.419 687.273 414.065 686.053 418.404C684.832 422.743 681.941 426.42 678.012 428.629V428.629ZM464.17 366.273C460.703 368.222 458.152 371.467 457.075 375.295C455.998 379.124 456.484 383.223 458.425 386.693L520.556 497.458C522.505 500.924 525.75 503.476 529.578 504.553C533.406 505.63 537.506 505.144 540.976 503.202L677.034 426.885C680.5 424.936 683.051 421.691 684.128 417.863C685.205 414.034 684.72 409.935 682.778 406.464L620.648 295.7C618.698 292.233 615.454 289.682 611.625 288.605C607.797 287.528 603.698 288.014 600.227 289.955L464.17 366.273Z" fill="#3F3D56"/>
<path id="Path 411_2" d="M602.442 330.148L533.775 368.665C533.179 369.015 532.471 369.126 531.796 368.975C531.12 368.825 530.527 368.423 530.137 367.852C529.945 367.55 529.818 367.212 529.761 366.859C529.705 366.506 529.721 366.146 529.808 365.799C529.895 365.453 530.053 365.128 530.27 364.844C530.487 364.56 530.76 364.324 531.072 364.149L600.97 324.942C604.408 325.673 604.443 329.025 602.441 330.149L602.442 330.148Z" fill="#CCCCCC"/>
<path id="Path 412_2" d="M609.198 342.193L540.531 380.709C539.935 381.06 539.227 381.171 538.552 381.02C537.876 380.869 537.283 380.467 536.893 379.896C536.701 379.594 536.574 379.257 536.517 378.904C536.461 378.551 536.477 378.19 536.564 377.844C536.652 377.497 536.809 377.172 537.026 376.889C537.243 376.605 537.516 376.368 537.828 376.193L607.726 336.986C611.164 337.718 611.199 341.07 609.197 342.193L609.198 342.193Z" fill="#CCCCCC"/>
<path id="Path 413_2" d="M529.534 395.893L508.577 407.648C507.893 408.031 507.084 408.127 506.329 407.915C505.574 407.702 504.934 407.199 504.549 406.515L490.677 381.785C490.294 381.1 490.198 380.291 490.411 379.536C490.623 378.781 491.127 378.141 491.811 377.756L512.767 366.002C513.452 365.619 514.26 365.523 515.015 365.735C515.771 365.948 516.411 366.451 516.795 367.135L530.667 391.865C531.05 392.55 531.146 393.358 530.933 394.114C530.721 394.869 530.218 395.509 529.534 395.893L529.534 395.893Z" fill="#CCCCCC"/>
<path id="Path 414_2" d="M622.831 366.966L518.033 425.749C517.437 426.1 516.729 426.211 516.054 426.06C515.378 425.909 514.785 425.507 514.395 424.936C514.204 424.634 514.076 424.297 514.019 423.944C513.963 423.591 513.979 423.23 514.066 422.884C514.154 422.537 514.311 422.212 514.528 421.929C514.745 421.645 515.018 421.408 515.33 421.233L621.36 361.759C624.798 362.491 624.833 365.843 622.831 366.966Z" fill="#CCCCCC"/>
<path id="Path 415_2" d="M629.589 379.014L524.791 437.797C524.195 438.148 523.487 438.259 522.812 438.108C522.136 437.957 521.543 437.556 521.153 436.984C520.962 436.682 520.834 436.345 520.777 435.992C520.721 435.639 520.737 435.278 520.824 434.932C520.912 434.585 521.069 434.26 521.286 433.977C521.503 433.693 521.776 433.456 522.088 433.282L628.118 373.807C631.556 374.539 631.591 377.891 629.589 379.014V379.014Z" fill="#CCCCCC"/>
<path id="Path 416_2" d="M636.343 391.054L531.545 449.837C530.948 450.188 530.241 450.299 529.565 450.148C528.89 449.997 528.297 449.596 527.907 449.024C527.715 448.723 527.587 448.385 527.531 448.032C527.474 447.679 527.49 447.319 527.578 446.972C527.665 446.626 527.822 446.301 528.04 446.017C528.257 445.733 528.53 445.497 528.841 445.322L634.872 385.847C638.309 386.579 638.345 389.931 636.343 391.054V391.054Z" fill="#CCCCCC"/>
<path id="Path 417_2" d="M643.1 403.102L538.302 461.885C537.706 462.235 536.998 462.346 536.323 462.196C535.647 462.045 535.055 461.643 534.664 461.072C534.473 460.77 534.345 460.432 534.288 460.079C534.232 459.726 534.248 459.366 534.335 459.019C534.423 458.673 534.58 458.348 534.797 458.064C535.014 457.78 535.287 457.544 535.599 457.369L641.629 397.894C645.067 398.626 645.102 401.978 643.1 403.102H643.1Z" fill="#CCCCCC"/>
<path id="Path 418_2" d="M649.854 415.143L545.057 473.926C544.46 474.276 543.752 474.388 543.077 474.237C542.402 474.086 541.809 473.684 541.418 473.113C541.227 472.811 541.099 472.473 541.042 472.12C540.986 471.768 541.002 471.407 541.089 471.06C541.177 470.714 541.334 470.389 541.551 470.105C541.769 469.821 542.041 469.585 542.353 469.41L648.383 409.936C651.821 410.667 651.856 414.02 649.854 415.143V415.143Z" fill="#CCCCCC"/>
<path id="Vector_27" d="M631.571 460.266C632.142 459.007 632.429 457.638 632.414 456.256C632.398 454.874 632.08 453.513 631.481 452.267C630.883 451.021 630.018 449.922 628.948 449.047C627.879 448.171 626.63 447.541 625.291 447.201L622.441 413.726L608.735 424.539L613.542 454.669C613.119 456.957 613.55 459.321 614.753 461.313C615.957 463.304 617.849 464.785 620.071 465.475C622.293 466.165 624.691 466.016 626.811 465.056C628.93 464.096 630.624 462.391 631.571 460.266V460.266Z" fill="#FFD2C3"/>
<path id="Vector_28" d="M622.7 443.695L611.317 445.052C610.739 445.121 610.152 445.07 609.595 444.902C609.037 444.733 608.52 444.452 608.076 444.075C607.633 443.698 607.272 443.233 607.016 442.71C606.76 442.186 606.615 441.616 606.589 441.034L604.929 402.632L583.352 343.686C582.487 341.857 582.093 339.841 582.205 337.821C582.317 335.801 582.932 333.841 583.993 332.118C584.522 331.286 585.128 330.505 585.801 329.785C587.129 328.355 588.783 327.268 590.622 326.615C592.461 325.962 594.431 325.763 596.363 326.035C598.354 326.3 600.253 327.036 601.903 328.182C603.552 329.328 604.904 330.851 605.847 332.625L619.918 362.111C625.804 374.445 628.583 388.031 628.013 401.684L626.426 439.672C626.384 440.666 625.994 441.614 625.322 442.348C624.651 443.083 623.742 443.557 622.756 443.687L622.7 443.695Z" fill="#98E6B9"/>
<path id="Vector_29" d="M663.126 609.664L652.572 614.296L629.682 575.793L645.258 568.956L663.126 609.664Z" fill="#FFD2C3"/>
<path id="Vector_30" d="M670.309 618.713L636.279 633.65L636.09 633.22C635.326 631.48 634.913 629.608 634.873 627.708C634.833 625.809 635.168 623.921 635.858 622.151C636.548 620.381 637.579 618.764 638.894 617.393C640.209 616.022 641.781 614.924 643.521 614.16L643.521 614.16L664.306 605.037L670.309 618.713Z" fill="#313042"/>
<path id="Vector_31" d="M521.437 622.477H509.911L504.428 578.02L521.439 578.021L521.437 622.477Z" fill="#FFD2C3"/>
<path id="Vector_32" d="M524.376 633.65L487.212 633.649V633.179C487.212 631.279 487.586 629.398 488.313 627.643C489.04 625.888 490.106 624.293 491.449 622.95C492.792 621.607 494.387 620.541 496.142 619.815C497.897 619.088 499.778 618.713 501.677 618.714H501.678L524.377 618.714L524.376 633.65Z" fill="#313042"/>
<path id="Vector_33" d="M633.652 607.279L569.446 463.996C569.33 463.728 569.133 463.502 568.884 463.35C568.634 463.198 568.343 463.127 568.051 463.148C567.759 463.169 567.481 463.279 567.255 463.465C567.029 463.651 566.867 463.902 566.79 464.184L527.669 602.578C527.411 603.547 526.816 604.392 525.99 604.96C525.164 605.529 524.163 605.784 523.166 605.679L501.8 603.542C500.699 603.427 499.687 602.887 498.978 602.037C498.269 601.187 497.919 600.094 498.002 598.991C504.798 514.467 515.511 434.693 547.604 382.471L547.774 382.193L596.318 391.712L661.126 598.085C661.446 599.148 661.338 600.294 660.823 601.278C660.309 602.262 659.43 603.006 658.375 603.35L638.832 609.631C637.831 609.957 636.744 609.896 635.785 609.461C634.827 609.025 634.066 608.247 633.652 607.279V607.279Z" fill="#313042"/>
<path id="Vector_34" d="M571.237 309.074C583.99 309.074 594.328 298.736 594.328 285.983C594.328 273.231 583.99 262.893 571.237 262.893C558.485 262.893 548.147 273.231 548.147 285.983C548.147 298.736 558.485 309.074 571.237 309.074Z" fill="#FFD2C3"/>
<path id="Vector_35" d="M544.62 386.468L544.325 386.408L544.256 386.116C541.145 372.98 541.071 358.645 544.036 343.51C545.539 335.775 549.725 328.818 555.854 323.865C561.984 318.913 569.664 316.282 577.543 316.436V316.436C586.092 316.609 594.252 320.043 600.353 326.034C606.453 332.026 610.034 340.122 610.362 348.667C611.351 374.698 600.713 397.267 600.606 397.492L600.447 397.822L544.62 386.468Z" fill="#98E6B9"/>
<path id="Vector_36" d="M482.72 430.397C484.088 430.195 485.394 429.696 486.547 428.934C487.701 428.172 488.673 427.167 489.396 425.989C490.119 424.811 490.574 423.489 490.731 422.116C490.888 420.743 490.741 419.352 490.302 418.042L516.898 397.516L500.385 391.85L477.661 412.21C475.508 413.094 473.754 414.736 472.732 416.826C471.709 418.917 471.489 421.309 472.113 423.551C472.736 425.793 474.161 427.728 476.116 428.99C478.071 430.251 480.421 430.752 482.72 430.397V430.397Z" fill="#FFD2C3"/>
<path id="Vector_37" d="M497.247 414.917C496.381 415.429 495.361 415.614 494.37 415.44C493.38 415.265 492.484 414.742 491.846 413.965L484.539 405.131C484.168 404.682 483.894 404.161 483.733 403.602C483.572 403.042 483.529 402.455 483.606 401.877C483.682 401.3 483.878 400.745 484.179 400.246C484.48 399.748 484.881 399.317 485.357 398.981L516.74 376.787L554.605 326.722C555.674 325.004 557.156 323.581 558.915 322.581C560.674 321.581 562.654 321.036 564.677 320.996C565.663 320.99 566.647 321.076 567.617 321.253V321.253C569.538 321.594 571.349 322.395 572.894 323.588C574.439 324.78 575.673 326.328 576.49 328.101C577.345 329.918 577.755 331.912 577.685 333.92C577.615 335.927 577.067 337.888 576.087 339.641L548.049 385.047L547.987 385.147L497.247 414.917Z" fill="#98E6B9"/>
<path id="Vector_38" d="M575.367 284.551C573.665 281.751 569.909 280.96 566.648 281.28C563.388 281.599 560.217 282.745 556.941 282.72C547.844 282.649 540.822 271.562 544.647 263.308C547.783 256.539 555.617 253.566 562.704 251.233C577.562 246.342 594.629 241.642 608.112 249.573C612.408 252.175 615.932 255.877 618.32 260.297C620.707 264.716 621.871 269.693 621.692 274.713C621.388 280.955 618.998 287.366 621.02 293.279C623.352 300.101 630.747 303.761 637.735 305.531C649.986 308.635 662.902 308.135 675.229 310.918C687.557 313.702 700.189 321.093 703.511 333.286C705.694 341.295 703.417 349.916 699.645 357.311C695.797 364.855 690.449 371.535 683.93 376.94C677.41 382.345 669.855 386.363 661.729 388.747C653.602 391.13 645.075 391.83 636.668 390.803C628.262 389.775 620.153 387.043 612.84 382.772C597.937 374.07 587.178 359.363 580.764 343.342C577.127 333.997 574.566 324.268 573.132 314.343C571.695 305.052 572.914 295.663 575.516 286.629C575.639 286.292 575.69 285.932 575.664 285.574C575.638 285.216 575.537 284.867 575.367 284.551Z" fill="#313042"/>
<path id="Vector_39" d="M658.668 635H468.668C468.403 635 468.148 634.895 467.961 634.707C467.773 634.52 467.668 634.265 467.668 634C467.668 633.735 467.773 633.48 467.961 633.293C468.148 633.105 468.403 633 468.668 633H658.668C658.933 633 659.187 633.105 659.375 633.293C659.562 633.48 659.668 633.735 659.668 634C659.668 634.265 659.562 634.52 659.375 634.707C659.187 634.895 658.933 635 658.668 635Z" fill="#313042"/>
</g>
<defs>
<clipPath id="clip0">
<rect width="704.362" height="635" fill="white"/>
</clipPath>
</defs>
</svg>
