<svg width="374" height="662" viewBox="0 0 374 662" fill="none" xmlns="http://www.w3.org/2000/svg">
<g id="tree">
<path id="Vector" d="M201.441 344.928C106.276 344.928 29.1294 267.781 29.1294 172.616C29.1294 77.4511 106.276 0.304565 201.441 0.304565C296.606 0.304565 373.753 77.4511 373.753 172.616C373.753 267.781 296.606 344.928 201.441 344.928Z" fill="#98E6B9"/>
<path id="Vector_2" opacity="0.2" d="M328.671 57.5256C344.743 95.1228 346.924 137.21 334.822 176.267C322.72 215.324 297.125 248.805 262.61 270.728C228.095 292.65 186.91 301.586 146.413 295.938C105.916 290.289 68.7475 270.425 41.5483 239.895C51.3668 262.866 66.0619 283.427 84.6156 300.154C103.169 316.881 125.138 329.374 148.999 336.769C172.861 344.163 198.044 346.28 222.805 342.975C247.567 339.67 271.313 331.022 292.4 317.628C313.487 304.235 331.409 286.417 344.926 265.409C358.443 244.401 367.231 220.705 370.681 195.964C374.131 171.223 372.161 146.027 364.907 122.123C357.653 98.2184 345.289 76.177 328.671 57.5256Z" fill="black"/>
<path id="Vector_3" d="M200.968 172.616H200.494L191.973 661.148H209.962L200.968 172.616Z" fill="#3F3D56"/>
<path id="Vector_4" d="M169.593 369.54L171.794 365.359L200.278 380.355L198.077 384.536L169.593 369.54Z" fill="#3F3D56"/>
<path id="Vector_5" d="M13.0454 283.377L0.25061 273.143C10.1904 272.047 14.2744 277.468 15.9458 281.758C23.7111 278.534 32.1646 282.76 32.1646 282.76L6.56451 292.053C7.856 288.604 10.1042 285.594 13.0454 283.377V283.377Z" fill="#3F3D56"/>
</g>
</svg>
