<svg width="746" height="812" viewBox="0 0 746 812" fill="none" xmlns="http://www.w3.org/2000/svg">
<g id="yoga 1" clip-path="url(#clip0)">
<path id="Vector" d="M745.338 731.195C745.338 755.84 578.488 812 372.669 812C166.85 812 0 755.84 0 731.195C0 706.55 166.85 722.752 372.669 722.752C578.488 722.752 745.338 706.55 745.338 731.195Z" fill="#A9B0BD"/>
<path id="Vector_2" opacity="0.1" d="M745.338 731.195C745.338 755.84 578.488 812 372.669 812C166.85 812 0 755.84 0 731.195C0 706.55 166.85 722.752 372.669 722.752C578.488 722.752 745.338 706.55 745.338 731.195Z" fill="#CFD5E1"/>
<path id="Vector_3" d="M106.132 403.15C114.791 403.15 121.811 396.13 121.811 387.471C121.811 378.812 114.791 371.792 106.132 371.792C97.4732 371.792 90.4536 378.812 90.4536 387.471C90.4536 396.13 97.4732 403.15 106.132 403.15Z" fill="#E7B0ED"/>
<path id="Vector_4" d="M174.877 532.197C183.536 532.197 190.556 525.177 190.556 516.518C190.556 507.859 183.536 500.84 174.877 500.84C166.218 500.84 159.198 507.859 159.198 516.518C159.198 525.177 166.218 532.197 174.877 532.197Z" fill="#E7B0ED"/>
<path id="Vector_5" d="M121.811 499.634C130.47 499.634 137.489 492.614 137.489 483.955C137.489 475.296 130.47 468.276 121.811 468.276C113.152 468.276 106.132 475.296 106.132 483.955C106.132 492.614 113.152 499.634 121.811 499.634Z" fill="#E7B0ED"/>
<path id="Vector_6" d="M126.812 706.497C126.535 706.044 120.009 695.148 117.746 672.52C115.671 651.761 117.006 616.769 135.153 567.958C169.532 475.489 127.23 400.88 126.798 400.137L128.885 398.926C128.994 399.115 139.91 418.137 146.358 448.427C154.878 488.586 151.776 530.341 137.414 568.799C103.094 661.11 128.609 704.809 128.87 705.24L126.812 706.497Z" fill="#CFD5E1"/>
<path id="Vector_7" d="M113.369 395.913C110.029 395.913 106.765 394.923 103.988 393.068C101.211 391.213 99.0471 388.575 97.7691 385.49C96.4912 382.405 96.1568 379.01 96.8083 375.735C97.4598 372.459 99.0679 369.451 101.429 367.089C103.791 364.728 106.799 363.12 110.075 362.468C113.35 361.817 116.745 362.151 119.83 363.429C122.915 364.707 125.552 366.871 127.408 369.648C129.263 372.425 130.253 375.689 130.253 379.029C130.248 383.505 128.468 387.797 125.302 390.962C122.137 394.128 117.845 395.908 113.369 395.913V395.913ZM113.369 364.556C110.506 364.556 107.708 365.405 105.328 366.995C102.948 368.585 101.093 370.846 99.9976 373.49C98.9022 376.135 98.6156 379.045 99.1741 381.852C99.7325 384.66 101.111 387.238 103.135 389.262C105.159 391.286 107.738 392.665 110.545 393.223C113.352 393.782 116.262 393.495 118.907 392.4C121.551 391.304 123.812 389.449 125.402 387.069C126.992 384.689 127.841 381.891 127.841 379.029C127.837 375.192 126.311 371.513 123.597 368.8C120.884 366.087 117.206 364.561 113.369 364.556V364.556Z" fill="#CFCCE0"/>
<path id="Vector_8" d="M162.816 452.598C171.476 452.598 178.495 445.578 178.495 436.919C178.495 428.26 171.476 421.24 162.816 421.24C154.157 421.24 147.138 428.26 147.138 436.919C147.138 445.578 154.157 452.598 162.816 452.598Z" fill="#CFD5E1"/>
<path id="Vector_9" d="M129.047 492.397C125.708 492.397 122.443 491.407 119.667 489.552C116.89 487.696 114.726 485.059 113.448 481.974C112.17 478.889 111.835 475.494 112.487 472.219C113.138 468.943 114.747 465.935 117.108 463.573C119.469 461.212 122.478 459.604 125.753 458.952C129.028 458.301 132.423 458.635 135.509 459.913C138.594 461.191 141.231 463.355 143.086 466.132C144.942 468.909 145.932 472.173 145.932 475.513C145.927 479.989 144.146 484.281 140.981 487.446C137.815 490.612 133.524 492.392 129.047 492.397ZM129.047 461.04C126.185 461.04 123.387 461.889 121.007 463.479C118.627 465.069 116.772 467.33 115.676 469.974C114.581 472.619 114.294 475.529 114.853 478.336C115.411 481.143 116.789 483.722 118.813 485.746C120.838 487.77 123.416 489.149 126.224 489.707C129.031 490.266 131.941 489.979 134.586 488.883C137.23 487.788 139.49 485.933 141.081 483.553C142.671 481.173 143.52 478.375 143.52 475.513C143.515 471.676 141.989 467.997 139.276 465.284C136.563 462.57 132.884 461.044 129.047 461.04V461.04Z" fill="#CFD5E1"/>
<path id="Vector_10" d="M170.053 524.96C166.713 524.96 163.449 523.97 160.672 522.115C157.896 520.26 155.731 517.623 154.453 514.537C153.175 511.452 152.841 508.057 153.493 504.782C154.144 501.506 155.752 498.498 158.114 496.137C160.475 493.775 163.483 492.167 166.759 491.516C170.034 490.864 173.429 491.198 176.514 492.476C179.6 493.754 182.237 495.919 184.092 498.695C185.947 501.472 186.937 504.736 186.937 508.076C186.932 512.552 185.152 516.844 181.987 520.01C178.821 523.175 174.529 524.955 170.053 524.96V524.96ZM170.053 493.603C167.19 493.603 164.392 494.452 162.012 496.042C159.632 497.633 157.777 499.893 156.682 502.537C155.587 505.182 155.3 508.092 155.858 510.899C156.417 513.707 157.795 516.285 159.819 518.309C161.843 520.334 164.422 521.712 167.229 522.27C170.037 522.829 172.947 522.542 175.591 521.447C178.236 520.351 180.496 518.496 182.086 516.116C183.677 513.736 184.525 510.938 184.525 508.076C184.521 504.239 182.995 500.56 180.282 497.847C177.569 495.134 173.89 493.608 170.053 493.603Z" fill="#CFD5E1"/>
<path id="Vector_11" d="M116.987 574.409C125.646 574.409 132.665 567.389 132.665 558.73C132.665 550.071 125.646 543.051 116.987 543.051C108.328 543.051 101.308 550.071 101.308 558.73C101.308 567.389 108.328 574.409 116.987 574.409Z" fill="#CFD5E1"/>
<path id="Vector_12" d="M136.283 707.074C136.283 707.074 120.605 668.48 167.641 639.535L136.283 707.074Z" fill="#CFD5E1"/>
<path id="Vector_13" d="M117.001 706.374C117.001 706.374 109.866 665.333 54.6382 665.684L117.001 706.374Z" fill="#CFD5E1"/>
<path id="Vector_14" d="M683.03 721.546H416.164C416.164 721.546 410.754 642.208 442.76 641.306C474.766 640.404 471.16 676.468 511.28 626.881C551.4 577.294 600.085 579.999 606.396 609.3C612.707 638.601 594.225 662.042 628.034 654.83C661.843 647.617 710.529 666.55 683.03 721.546Z" fill="#E7B0ED"/>
<path id="Vector_15" d="M545.092 721.564L544.191 721.528C546.292 669.292 557.232 635.73 566.04 616.774C575.603 596.19 584.818 587.858 584.91 587.776L585.509 588.45C585.418 588.531 576.31 596.781 566.824 617.224C558.065 636.101 547.185 669.525 545.092 721.564Z" fill="#F2F2F2"/>
<path id="Vector_16" d="M641.678 721.672L640.813 721.42C651.234 685.649 675.776 663.064 676.023 662.839L676.629 663.507C676.384 663.729 652.026 686.155 641.678 721.672Z" fill="#F2F2F2"/>
<path id="Vector_17" d="M458.196 721.608L457.303 721.484C460.839 695.983 454.452 676.198 448.471 664.091C441.995 650.982 434.606 643.822 434.532 643.751L435.156 643.1C435.231 643.172 442.734 650.442 449.279 663.691C455.316 675.912 461.764 695.88 458.196 721.608Z" fill="#F2F2F2"/>
<path id="Vector_18" d="M719.249 722.752H387.379L387.303 721.628C387.112 718.832 382.879 652.865 404.253 629.327C409.031 624.066 414.787 621.304 421.36 621.119C435.293 620.722 444.048 625.941 451.11 630.13C464.421 638.026 473.214 643.243 505.186 603.728C539.821 560.919 577.191 551.71 598.673 556.831C612.553 560.14 622.12 569.494 624.92 582.493C627.571 594.802 626.727 606.368 626.049 615.661C625.322 625.604 624.749 633.458 628.833 637.018C632.242 639.987 639.046 640.258 650.246 637.867C673.026 633.008 704.811 637.166 720.766 657.779C729.349 668.869 736.111 689.028 719.583 722.086L719.249 722.752ZM389.644 720.34H717.756C730.073 695.352 730.457 674.242 718.858 659.256C704.223 640.346 673.517 635.369 650.749 640.226C638.581 642.823 631.331 642.394 627.248 638.836C622.255 634.485 622.867 626.101 623.642 615.485C624.31 606.346 625.141 594.971 622.562 583C619.966 570.946 611.055 562.263 598.114 559.177C577.317 554.215 540.991 563.309 507.061 605.245C473.779 646.38 463.753 640.434 449.88 632.205C442.731 627.965 434.614 623.156 421.429 623.53C415.536 623.696 410.359 626.192 406.038 630.949C386.828 652.103 389.174 711.422 389.644 720.34Z" fill="#CFD5E1"/>
<path id="Vector_19" d="M372.669 775.819C578.488 775.819 745.338 755.84 745.338 731.195C745.338 706.55 578.488 686.571 372.669 686.571C166.85 686.571 0 706.55 0 731.195C0 755.84 166.85 775.819 372.669 775.819Z" fill="#CFD5E1"/>
<path id="Vector_20" d="M380.863 147.438C380.863 147.438 362.232 140.784 350.255 167.399C338.278 194.015 319.647 223.292 319.647 223.292L330.294 225.954C330.294 225.954 332.955 207.323 339.609 204.661L336.948 228.615C336.948 228.615 416.795 256.562 452.726 225.954L451.395 216.638C451.395 216.638 456.718 217.969 456.718 225.954L460.71 221.962C460.71 221.962 456.718 213.977 444.741 203.331C436.88 196.343 434.178 183.049 433.25 174.737C432.555 167.797 429.778 161.229 425.284 155.894C417.324 146.67 402.821 136.865 380.863 147.438Z" fill="#313042"/>
<path id="Vector_21" d="M361.211 251.791L341.915 227.67L327.442 178.222L382.92 119.125C382.92 119.125 394.981 73.2955 384.126 75.7076C373.272 78.1197 370.86 111.889 370.86 111.889L300.909 166.161C300.909 166.161 308.145 242.142 328.648 268.675L344.327 318.123L361.211 251.791Z" fill="#FFD2C3"/>
<path id="Vector_22" d="M414.278 251.791L433.574 227.67L448.047 178.222L392.569 119.125C392.569 119.125 380.508 73.2955 391.363 75.7076C402.217 78.1197 404.629 111.889 404.629 111.889L474.58 166.161C474.58 166.161 467.344 242.142 446.841 268.675L431.162 318.123L414.278 251.791Z" fill="#FFD2C3"/>
<path id="Vector_23" d="M387.744 231.288C405.063 231.288 419.102 217.249 419.102 199.931C419.102 182.612 405.063 168.573 387.744 168.573C370.426 168.573 356.387 182.612 356.387 199.931C356.387 217.249 370.426 231.288 387.744 231.288Z" fill="#FFD2C3"/>
<path id="Vector_24" d="M373.272 216.815C373.272 216.815 374.478 242.142 367.242 250.585C360.005 259.027 352.769 302.445 387.744 303.651C422.72 304.857 419.102 267.469 419.102 267.469L411.865 246.966C411.865 246.966 401.011 231.288 404.629 216.815H373.272Z" fill="#FFD2C3"/>
<path id="Vector_25" d="M340.709 497.824L366.639 505.664C366.639 505.664 387.744 493 387.744 505.061C387.744 517.121 380.508 532.8 382.92 543.654C385.332 554.509 390.157 581.042 382.92 581.042C375.684 581.042 361.211 534.006 361.211 534.006L337.09 520.739L340.709 497.824Z" fill="#FFD2C3"/>
<path id="Vector_26" d="M373.272 666.671L363.623 704.059C363.623 704.059 355.181 714.913 363.623 719.737C367.585 722.001 370.484 726.655 372.446 730.957C374.156 734.832 377.017 738.086 380.641 740.279C384.264 742.471 388.475 743.495 392.701 743.211C396.817 742.869 400.285 741.242 401.128 737.012C401.362 735.685 401.316 734.324 400.995 733.016C400.673 731.707 400.083 730.48 399.261 729.412C390.364 717.39 388.347 709.486 388.347 709.486L391.966 667.274L373.272 666.671Z" fill="#FFD2C3"/>
<path id="Vector_27" d="M349.918 205.5C349.918 205.5 360.565 190.861 369.88 188.199C379.196 185.538 380.526 172.23 380.526 172.23C380.526 172.23 404.481 198.846 419.119 200.176C433.758 201.507 420.45 168.238 420.45 168.238L393.834 161.584L368.549 164.245L348.588 177.553L349.918 205.5Z" fill="#313042"/>
<path id="Vector_28" d="M329.854 406.165L325.03 415.813C325.03 415.813 208.043 453.201 217.692 488.176C227.34 523.151 281.612 513.503 281.612 513.503L341.915 524.357L347.945 497.824L305.733 486.97L378.096 460.437L380.508 583.454L370.86 671.495L394.981 673.908C394.981 673.908 421.514 593.102 417.896 559.333C417.896 559.333 462.519 421.843 437.192 401.341C411.865 380.838 329.854 406.165 329.854 406.165Z" fill="#313042"/>
<path id="Vector_29" d="M389.159 267.486L370.34 244.742L357.593 250.585L344.327 292.796C344.327 292.796 333.472 313.299 346.739 335.008C346.739 335.008 349.151 349.481 345.533 353.099C341.915 356.717 340.709 379.632 340.709 379.632L325.03 409.783C325.03 409.783 414.278 425.462 440.811 403.753C440.811 403.753 426.888 352.422 435.33 336.743C443.772 321.064 444.978 297.029 435.33 286.174C425.682 275.32 415.484 246.966 415.484 246.966L409.643 243.231L389.159 267.486Z" fill="#CFD5E1"/>
<path id="Vector_30" d="M459.515 87.42H447.948V75.853H446.897V87.42H435.33V88.471H446.897V100.038H447.948V88.471H459.515V87.42Z" fill="#CFCCE0"/>
<path id="Vector_31" d="M349.583 63.235H338.016V51.668H336.965V63.235H325.398V64.286H336.965V75.853H338.016V64.286H349.583V63.235Z" fill="#CFCCE0"/>
<path id="Vector_32" d="M402.35 11.567H390.784V0H389.732V11.567H378.165V12.618H389.732V24.185H390.784V12.618H402.35V11.567Z" fill="#CFCCE0"/>
</g>
<defs>
<clipPath id="clip0">
<rect width="745.338" height="812" fill="white"/>
</clipPath>
</defs>
</svg>
